<svg
	xmlns="http://www.w3.org/2000/svg"
	width="52"
	height="52"
	viewBox="0 0 52 52"
	fill="none"
>
	<g clipPath="url(#clip0_787_656)">
	<path
		d="M51.543 39.8195L49.3622 37.6388V33.9447C49.3622 33.7951 49.3206 33.6484 49.2419 33.5212C49.1633 33.3939 49.0507 33.2911 48.9169 33.2242L46.0091 31.7697C45.6844 30.0909 44.7773 28.5807 43.4476 27.5057C45.5737 25.7932 46.14 25.7701 46.14 25.0835V20.6813L48.198 19.3093C48.3734 19.1898 48.4946 19.0059 48.5352 18.7976C48.5758 18.5892 48.5325 18.3733 48.4148 18.1967C48.297 18.0201 48.1143 17.8971 47.9064 17.8544C47.6985 17.8117 47.4821 17.8529 47.3043 17.9689L44.8877 19.58C44.2615 19.9973 44.6439 20.4522 44.5289 24.6808L41.9885 26.5861C41.7412 26.4692 41.4875 26.3664 41.2285 26.2783C40.7887 25.0599 40.8933 22.7088 38.5934 21.1475C39.4356 20.3788 42.9178 19.225 42.9178 15.4169C42.9178 15.2032 42.8329 14.9983 42.6818 14.8473C42.5308 14.6962 42.3259 14.6113 42.1122 14.6113C41.8986 14.6113 41.6937 14.6962 41.5426 14.8473C41.3915 14.9983 41.3067 15.2032 41.3067 15.4169C41.3073 16.0278 41.1568 16.6294 40.8686 17.168C40.5803 17.7066 40.1632 18.1655 39.6546 18.5039L36.8364 20.3826C36.0673 20.2061 35.2682 20.2061 34.4991 20.3826L31.681 18.5039C31.1723 18.1655 30.7552 17.7066 30.467 17.168C30.1787 16.6294 30.0282 16.0278 30.0289 15.4169C30.0289 15.2032 29.944 14.9983 29.7929 14.8473C29.6419 14.6962 29.437 14.6113 29.2233 14.6113C29.0097 14.6113 28.8048 14.6962 28.6537 14.8473C28.5026 14.9983 28.4178 15.2032 28.4178 15.4169C28.4178 19.2306 31.8898 20.3695 32.7421 21.1475C30.4362 22.7125 30.5548 25.0378 30.107 26.2783C29.8481 26.3664 29.5944 26.4692 29.3471 26.5861L26.8067 24.6808C26.6919 20.4589 27.0743 19.9975 26.448 19.58L24.0313 17.9689C23.9433 17.909 23.8443 17.8671 23.7401 17.8456C23.6358 17.8242 23.5283 17.8236 23.4238 17.844C23.3193 17.8644 23.2199 17.9052 23.1313 17.9642C23.0427 18.0233 22.9667 18.0993 22.9076 18.1878C22.8486 18.2764 22.8076 18.3758 22.7872 18.4803C22.7668 18.5848 22.7673 18.6923 22.7887 18.7966C22.8101 18.9008 22.852 18.9999 22.9119 19.0879C22.9718 19.1759 23.0485 19.2512 23.1377 19.3093L25.1955 20.6813C25.2995 24.9407 24.9546 25.3056 25.5178 25.728L27.8884 27.506C26.5589 28.581 25.6517 30.091 25.327 31.7697L22.4186 33.2239C22.2848 33.2908 22.1722 33.3937 22.0936 33.521C22.0149 33.6483 21.9733 33.795 21.9733 33.9447V37.6388L19.7926 39.8195C19.6415 39.9705 19.5566 40.1755 19.5566 40.3891C19.5566 40.6028 19.6415 40.8077 19.7926 40.9587C19.9437 41.1098 20.1486 41.1947 20.3622 41.1947C20.5759 41.1947 20.7808 41.1098 20.9318 40.9587C23.2414 38.5447 23.5844 38.5494 23.5844 37.9724V34.4425L25.1955 33.6369C25.3484 36.9417 24.727 39.2396 26.1456 42.3277L24.6259 43.8472C24.214 44.2591 24.4648 44.496 24.39 48.1111L22.2093 50.2917C22.0582 50.4428 21.9733 50.6477 21.9733 50.8613C21.9733 51.075 22.0582 51.2799 22.2093 51.431C22.3603 51.582 22.5652 51.6669 22.7789 51.6669C22.9925 51.6669 23.1974 51.582 23.3485 51.431C25.658 49.0169 26.0011 49.0216 26.0011 48.4447V44.7505L26.9637 43.7878C31.1246 49.9927 40.2057 50.0007 44.3718 43.7878L45.3344 44.7505C45.4089 48.3606 45.1586 48.6025 45.5704 49.0143L47.987 51.431C48.0618 51.5058 48.1506 51.5651 48.2484 51.6056C48.3461 51.6461 48.4509 51.6669 48.5567 51.6669C48.6624 51.6669 48.7672 51.6461 48.8649 51.6056C48.9627 51.5651 49.0515 51.5058 49.1263 51.431C49.2011 51.3561 49.2604 51.2673 49.3009 51.1696C49.3414 51.0719 49.3622 50.9671 49.3622 50.8613C49.3622 50.7555 49.3414 50.6508 49.3009 50.553C49.2604 50.4553 49.2011 50.3665 49.1263 50.2917L46.9455 48.1111C46.871 44.501 47.1214 44.259 46.7096 43.8472L45.1899 42.3277C46.6097 39.2378 45.9866 36.9532 46.14 33.6369L47.7511 34.4425C47.8249 37.877 47.5758 38.1308 47.987 38.5421C50.3514 40.798 50.3893 41.1947 50.9733 41.1947C51.1324 41.1942 51.2879 41.1467 51.42 41.0581C51.5522 40.9695 51.6552 40.8438 51.7161 40.6968C51.777 40.5498 51.793 40.388 51.7622 40.2319C51.7314 40.0758 51.6551 39.9323 51.543 39.8195ZM32.1766 24.6007C33.0683 20.9591 38.2674 20.9598 39.1589 24.6007L39.4812 25.9152C38.992 25.8755 32.3419 25.8757 31.855 25.9152L32.1766 24.6007ZM30.0289 32.8787V38.778C30.0289 41.521 31.122 44.2949 32.939 46.4006C26.4618 44.3 24.5122 35.5067 30.0289 32.8787ZM36.4733 46.0877V40.3891C36.4733 40.1755 36.3885 39.9706 36.2374 39.8195C36.0863 39.6684 35.8814 39.5835 35.6678 39.5835C35.4541 39.5835 35.2492 39.6684 35.0982 39.8195C34.9471 39.9706 34.8622 40.1755 34.8622 40.3891V46.0877C32.8726 44.2168 31.64 41.4793 31.64 38.778V32.3921C32.3153 32.295 32.5544 32.3497 34.8622 32.3335V33.9447C34.8622 34.1583 34.9471 34.3632 35.0982 34.5143C35.2492 34.6653 35.4541 34.7502 35.6678 34.7502C35.8814 34.7502 36.0863 34.6653 36.2374 34.5143C36.3885 34.3632 36.4733 34.1583 36.4733 33.9447V32.3335C38.7843 32.3497 39.0209 32.295 39.6955 32.3921V38.778C39.6955 41.4793 38.4629 44.2167 36.4733 46.0877ZM38.3966 46.4011C40.2135 44.2949 41.3067 41.521 41.3067 38.778V32.8787C46.8772 35.5323 44.7947 44.3256 38.3966 46.4011ZM44.5289 33.4226C43.8505 32.5797 42.9918 31.8996 42.016 31.4323C41.0401 30.965 39.972 30.7224 38.89 30.7224H32.4455C31.3636 30.7224 30.2954 30.965 29.3195 31.4323C28.3437 31.8996 27.485 32.5797 26.8067 33.4226V33.1391C26.8084 31.6441 27.403 30.2108 28.4601 29.1537C29.5173 28.0966 30.9505 27.5019 32.4455 27.5002H38.89C40.385 27.5019 41.8183 28.0966 42.8754 29.1537C43.9325 30.2108 44.5272 31.6441 44.5289 33.1391V33.4226Z"
		fill="#0F0701"
	/>
	<path
		d="M22.0015 45.9491C18.7634 45.8326 15.2083 45.1384 11.4193 43.8876L16.5293 38.7779H17.9448C18.1584 38.7779 18.3633 38.6931 18.5144 38.542C18.6654 38.3909 18.7503 38.186 18.7503 37.9724C18.7503 37.7587 18.6654 37.5538 18.5144 37.4028C18.3633 37.2517 18.1584 37.1668 17.9448 37.1668C16.4425 37.2256 16.0164 37.0126 15.6261 37.4027C2.64927 50.2594 3.26904 50.0557 2.64051 50.0557C2.48127 50.0557 2.32559 50.0086 2.19315 49.9202C2.0607 49.8317 1.95743 49.7061 1.89638 49.559C1.83533 49.4119 1.81923 49.2501 1.85013 49.0938C1.88103 48.9376 1.95753 48.7941 2.06997 48.6813C15.659 35.0905 14.7225 36.1699 14.7225 35.6937V23.4758C14.7272 22.3835 16.3323 22.4638 16.3336 23.4724V32.4714C16.334 32.6306 16.3814 32.7861 16.47 32.9184C16.5586 33.0507 16.6843 33.1537 16.8314 33.2147C16.9784 33.2756 17.1402 33.2916 17.2964 33.2607C17.4525 33.2298 17.596 33.1534 17.7088 33.0411L22.5422 28.2077C22.6932 28.0567 22.7781 27.8518 22.7781 27.6381C22.7781 27.4245 22.6932 27.2196 22.5422 27.0685C22.3911 26.9174 22.1862 26.8325 21.9725 26.8325C21.7589 26.8325 21.554 26.9174 21.4029 27.0685L17.9448 30.5267V23.4714C17.9407 20.3369 13.1253 20.2228 13.1114 23.4724V35.3601L7.97016 40.5017C7.2182 38.3178 6.6584 36.0724 6.29712 33.791C6.26336 33.5811 6.14792 33.393 5.97601 33.2678C5.80409 33.1426 5.58965 33.0904 5.37944 33.1227C5.16924 33.155 4.98034 33.2691 4.85394 33.4402C4.72754 33.6112 4.67391 33.8253 4.70474 34.0357C5.12353 36.6707 5.79331 39.2595 6.70494 41.7669L0.931219 47.5413C-0.581312 49.0513 0.485847 51.6654 2.6392 51.6668C2.95647 51.6668 3.27062 51.6043 3.56373 51.4828C3.85684 51.3614 4.12316 51.1834 4.34748 50.959L10.1483 45.159C15.122 46.8826 19.5934 47.5605 21.9728 47.5605C22.4046 47.5597 23.0484 45.9867 22.0015 45.9491Z"
		fill="#0F0701"
	/>
	<path
		d="M5.17706 28.3083C5.38199 28.3081 5.57915 28.2298 5.72838 28.0894C5.87761 27.9489 5.9677 27.7569 5.9803 27.5523C6.09237 25.6114 6.45451 23.6931 7.05773 21.8449C9.55495 22.0622 11.855 20.2606 12.2471 17.7818C15.4982 17.2876 17.2642 13.5269 15.7578 10.7111C17.9906 9.1763 20.6181 7.83303 23.5919 6.70586C23.9901 10.5417 29.4096 11.8916 31.6242 8.73143C33.0981 9.15303 34.6787 8.97711 36.0238 8.24175C39.8918 11.0036 44.2376 5.9869 42.3503 2.3907C45.9337 1.96114 48.7719 1.80546 50.1239 1.75129C49.9103 6.01555 49.4697 10.2654 48.804 14.4828C48.7717 14.6928 48.8237 14.9071 48.9487 15.079C49.0737 15.2508 49.2615 15.3664 49.4712 15.4004C49.681 15.4344 49.8957 15.3842 50.0686 15.2607C50.2415 15.1371 50.3585 14.9502 50.3943 14.7408C51.0761 10.5392 51.5414 5.90151 51.7773 0.956711C51.7826 0.846758 51.7652 0.736898 51.7264 0.63391C51.6875 0.530923 51.6279 0.436995 51.5513 0.357923C51.4748 0.27885 51.3828 0.216312 51.2811 0.174169C51.1794 0.132025 51.0702 0.11117 50.9601 0.112891C50.9171 0.113596 46.5865 0.189218 40.717 0.973829C40.5619 0.994841 40.4162 1.06055 40.2978 1.16294C40.1795 1.26532 40.0934 1.39996 40.0503 1.55041C40.0071 1.70086 40.0087 1.86062 40.0548 2.01019C40.1009 2.15977 40.1896 2.29268 40.31 2.39271C42.7876 4.44477 39.4929 9.26149 36.6195 6.65531C36.4821 6.53075 36.306 6.45739 36.1208 6.44762C35.9357 6.43784 35.7528 6.49224 35.6031 6.60164C34.497 7.40992 32.8528 7.57838 31.6047 7.01016C31.4132 6.92305 31.1952 6.91431 30.9974 6.98581C30.7995 7.05732 30.6375 7.20339 30.5459 7.3928C29.2522 10.0698 24.6465 8.90321 25.2345 5.68291C25.2598 5.54416 25.2483 5.40119 25.2011 5.26829C25.1539 5.13539 25.0726 5.01722 24.9653 4.9256C24.8581 4.83398 24.7287 4.77212 24.59 4.74621C24.4514 4.72031 24.3084 4.73125 24.1753 4.77796C20.3006 6.13794 16.9389 7.84512 14.1835 9.85125C14.0953 9.91543 14.0211 9.99683 13.9654 10.0905C13.9096 10.1842 13.8735 10.2883 13.8591 10.3963C13.8447 10.5044 13.8525 10.6143 13.8818 10.7193C13.9111 10.8243 13.9615 10.9223 14.0298 11.0072C15.6064 12.9679 14.1826 16.2548 11.5103 16.2232C11.4036 16.2219 11.2977 16.2417 11.1988 16.2817C11.0998 16.3216 11.0098 16.3808 10.9339 16.4559C10.858 16.5309 10.7978 16.6203 10.7567 16.7188C10.7157 16.8173 10.6946 16.9229 10.6947 17.0297C10.6971 19.0872 8.71294 20.6531 6.71295 20.1596C6.5204 20.1121 6.31709 20.1373 6.14196 20.2304C5.96683 20.3235 5.83218 20.4779 5.76381 20.664C4.97336 22.8477 4.50473 25.1348 4.37261 27.4533C4.36586 27.5631 4.38166 27.6731 4.41904 27.7766C4.45642 27.88 4.51459 27.9747 4.58996 28.0548C4.66532 28.1349 4.7563 28.1987 4.85727 28.2423C4.95824 28.2859 5.06707 28.3084 5.17706 28.3083Z"
		fill="#0F0701"
	/>
	<path
		d="M5.05556 31.5281C5.50045 31.5281 5.86111 31.1674 5.86111 30.7225C5.86111 30.2777 5.50045 29.917 5.05556 29.917C4.61066 29.917 4.25 30.2777 4.25 30.7225C4.25 31.1674 4.61066 31.5281 5.05556 31.5281Z"
		fill="#0F0701"
	/>
	<path
		d="M35.6669 37.9724C36.1118 37.9724 36.4724 37.6118 36.4724 37.1669C36.4724 36.722 36.1118 36.3613 35.6669 36.3613C35.222 36.3613 34.8613 36.722 34.8613 37.1669C34.8613 37.6118 35.222 37.9724 35.6669 37.9724Z"
		fill="#0F0701"
	/>
	</g>
	<defs>
	<clipPath id="clip0_787_656">
		<rect
		width="51.5556"
		height="51.5556"
		fill="white"
		transform="translate(0.222656 0.111328)"
		/>
	</clipPath>
	</defs>
</svg>