<svg
	xmlns="http://www.w3.org/2000/svg"
	width="55"
	height="58"
	viewBox="0 0 55 58"
	fill="none"
>
	<path
	d="M43.4212 24.1915C43.4025 24.1705 43.3838 24.1496 43.3637 24.1301L43.3623 24.1316L43.3609 24.1301L43.3594 24.1316C43.2516 24.0283 43.1266 23.94 42.9915 23.8741V19.0101C42.9915 17.5639 42.3807 16.254 41.3962 15.3064C40.4304 14.3767 39.1039 13.8003 37.6481 13.8003C36.1922 13.8003 34.8642 14.3767 33.8999 15.3064C32.9154 16.254 32.3046 17.5639 32.3046 19.0101V23.8711C32.1681 23.937 32.043 24.0253 31.9352 24.1286C31.6593 24.3936 31.4883 24.7649 31.4883 25.1751C31.4883 25.5853 31.6593 25.9566 31.9352 26.2215C32.1925 26.4686 32.5432 26.6227 32.924 26.6227H42.3721C42.7256 26.6227 43.0519 26.491 43.3034 26.2739C43.3235 26.2575 43.3436 26.238 43.3623 26.22C43.6382 25.9551 43.8078 25.5838 43.8078 25.1751C43.8078 24.7963 43.6612 24.4505 43.4212 24.1915ZM33.9056 24.8996C33.9401 24.8038 33.9602 24.7005 33.9602 24.5912V19.0101C33.9602 18.064 34.3655 17.2016 35.018 16.5729C35.6892 15.9261 36.6205 15.5249 37.6481 15.5249C38.6756 15.5249 39.6069 15.9261 40.2781 16.5729C40.9306 17.2016 41.3359 18.064 41.3359 19.0101V24.5912C41.3359 24.7005 41.3545 24.8038 41.3905 24.8996H33.9056Z"
	fill="#0F0701"
	/>
	<path
	d="M40.2138 26.2156C40.2138 25.7396 39.843 25.3533 39.386 25.3533C38.929 25.3533 38.5582 25.7396 38.5582 26.2156C38.5582 26.4267 38.4648 26.6214 38.3167 26.7651C38.3024 26.7786 38.288 26.7935 38.275 26.807C38.1126 26.9432 37.8942 27.0256 37.6499 27.0256C37.3826 27.0256 37.1469 26.9253 36.983 26.7666C36.9744 26.7576 36.9658 26.7471 36.9557 26.7396C36.8221 26.5989 36.7416 26.4163 36.7416 26.2156C36.7416 25.7396 36.3708 25.3533 35.9138 25.3533C35.4567 25.3533 35.0859 25.7396 35.0859 26.2156C35.0859 26.9028 35.3633 27.5256 35.8146 27.9837C35.829 28.0002 35.8448 28.0166 35.8606 28.0316L35.862 28.0301L35.8635 28.0316L35.8649 28.0301C36.3277 28.4747 36.96 28.7502 37.6513 28.7502C38.3067 28.7502 38.9088 28.5032 39.3644 28.0975C39.3917 28.078 39.4176 28.0556 39.442 28.0316L39.4406 28.0301C39.9163 27.5675 40.2138 26.9268 40.2138 26.2156ZM38.4763 13.3198C38.4763 12.8438 38.1055 12.4575 37.6484 12.4575C37.1914 12.4575 36.8206 12.8438 36.8206 13.3198V14.6627C36.8206 15.1388 37.1914 15.525 37.6484 15.525C38.1055 15.525 38.4763 15.1388 38.4763 14.6627V13.3198Z"
	fill="#0F0701"
	/>
	<path
	d="M37.6473 7.55296C41.0548 7.55296 44.1405 8.99165 46.3739 11.3181C48.6072 13.6446 49.9884 16.8588 49.9884 20.4083C49.9884 23.9579 48.6072 27.1721 46.3739 29.4986C44.1405 31.8251 41.0548 33.2637 37.6473 33.2637C34.2397 33.2637 31.1541 31.8251 28.9207 29.4986C26.6873 27.1721 25.3062 23.9579 25.3062 20.4083C25.3062 16.8588 26.6873 13.6461 28.9207 11.3196C31.1541 8.99315 34.2397 7.55296 37.6473 7.55296ZM45.204 12.5382C43.271 10.5247 40.5993 9.27759 37.6473 9.27759C34.6953 9.27759 32.025 10.5232 30.0906 12.5382C28.1576 14.5533 26.9604 17.3349 26.9604 20.4098C26.9604 23.4848 28.1561 26.2664 30.0906 28.2815C32.025 30.295 34.6953 31.5421 37.6473 31.5421C40.5993 31.5421 43.2695 30.2965 45.204 28.2815C47.137 26.2664 48.3342 23.4848 48.3342 20.4098C48.3342 17.3349 47.137 14.5533 45.204 12.5382ZM36.8195 5.39268C36.8195 5.86875 37.1903 6.25499 37.6473 6.25499C38.1043 6.25499 38.4751 5.86875 38.4751 5.39268V2.30421C38.4751 1.82814 38.1043 1.44189 37.6473 1.44189C37.1903 1.44189 36.8195 1.82814 36.8195 2.30421V5.39268ZM44.0456 6.94814C43.936 7.14551 43.9061 7.38013 43.9624 7.60048C44.0187 7.82083 44.1567 8.00889 44.346 8.12334C44.7412 8.36138 45.2457 8.22065 45.4742 7.81046L46.9574 5.13518C47.1859 4.72349 47.0508 4.19801 46.657 3.95998C46.4675 3.84578 46.2423 3.81459 46.0307 3.87326C45.8192 3.93192 45.6387 4.07565 45.5288 4.27287L44.0456 6.94814ZM49.5529 12.0577C49.4591 12.1142 49.3768 12.1895 49.311 12.2792C49.2451 12.3689 49.1968 12.4713 49.1689 12.5804C49.141 12.6896 49.134 12.8034 49.1484 12.9153C49.1627 13.0273 49.1981 13.1352 49.2525 13.2329C49.3069 13.3306 49.3791 13.4163 49.4652 13.4849C49.5513 13.5535 49.6496 13.6038 49.7544 13.6329C49.8592 13.662 49.9684 13.6692 50.0759 13.6543C50.1834 13.6393 50.2869 13.6024 50.3807 13.5458L52.949 12.0008C53.0428 11.9442 53.125 11.8689 53.1909 11.7792C53.2568 11.6895 53.3051 11.5872 53.333 11.478C53.3609 11.3689 53.3679 11.2551 53.3535 11.1431C53.3392 11.0312 53.3038 10.9233 53.2493 10.8256C53.195 10.7278 53.1228 10.6422 53.0366 10.5735C52.9505 10.5049 52.8523 10.4546 52.7475 10.4255C52.6427 10.3965 52.5335 10.3892 52.426 10.4042C52.3185 10.4191 52.2149 10.456 52.1212 10.5127L49.5529 12.0577ZM24.9167 13.5473C25.3119 13.7838 25.815 13.6416 26.042 13.2314C26.2691 12.8197 26.1326 12.2957 25.7388 12.0592L23.1705 10.5142C22.9811 10.4007 22.7561 10.3703 22.5451 10.4295C22.3341 10.4887 22.1543 10.6328 22.0452 10.8301C21.9363 11.0274 21.9071 11.2617 21.9639 11.4815C22.0208 11.7013 22.1591 11.8886 22.3485 12.0023L24.9167 13.5473ZM29.8204 7.80596C30.0475 8.21766 30.5505 8.35839 30.9457 8.12185C31.3409 7.88531 31.476 7.36133 31.2489 6.94964L29.7658 4.27436C29.5387 3.86267 29.0357 3.72194 28.6405 3.95848C28.2452 4.19502 28.1101 4.71899 28.3372 5.13069L29.8204 7.80596Z"
	fill="#0F0701"
	/>
	<path
	d="M32.9585 31.4644V54.8892L3.61267 54.9086V16.5281L26.8505 16.5101C27.0172 15.9233 27.2213 15.3499 27.4613 14.7915L2.85671 14.811C2.83228 14.8095 2.80928 14.808 2.78485 14.808C2.32782 14.808 1.95703 15.1942 1.95703 15.6703V55.768C1.95703 56.244 2.32782 56.6303 2.78485 56.6303V56.6273L33.7145 56.6063C33.7389 56.6078 33.7619 56.6093 33.7863 56.6093C34.2434 56.6093 34.6141 56.2231 34.6141 55.747V31.9944C34.0508 31.8552 33.4975 31.6785 32.9585 31.4644Z"
	fill="#0F0701"
	/>
	<path
	d="M8.12665 46.5412C7.66962 46.5412 7.29883 46.9274 7.29883 47.4035C7.29883 47.8796 7.66962 48.2658 8.12665 48.2658H28.4427C28.8997 48.2658 29.2705 47.8796 29.2705 47.4035C29.2705 46.9274 28.8997 46.5412 28.4427 46.5412H8.12665ZM8.12665 38.7444C7.66962 38.7444 7.29883 39.1307 7.29883 39.6067C7.29883 40.0828 7.66962 40.4691 8.12665 40.4691H28.4427C28.8997 40.4691 29.2705 40.0828 29.2705 39.6067C29.2705 39.1307 28.8997 38.7444 28.4427 38.7444H8.12665ZM8.12665 30.9477C7.66962 30.9477 7.29883 31.3339 7.29883 31.81C7.29883 32.286 7.66962 32.6723 8.12665 32.6723H28.4427C28.8997 32.6723 29.2705 32.286 29.2705 31.81C29.2705 31.3339 28.8997 30.9477 28.4427 30.9477H8.12665ZM8.12665 23.1509C7.66962 23.1509 7.29883 23.5371 7.29883 24.0132C7.29883 24.4893 7.66962 24.8755 8.12665 24.8755H26.7957C26.6097 24.3115 26.4594 23.7354 26.3458 23.1509H8.12665Z"
	fill="#0F0701"
	/>
</svg>