<svg
	xmlns="http://www.w3.org/2000/svg"
	width="63"
	height="62"
	viewBox="0 0 63 62"
	fill="none"
>
	<g clipPath="url(#clip0_787_670)">
	<path
		d="M58.1861 24.668C57.9591 24.4441 57.658 24.3184 57.3408 24.325C51.0142 24.3778 44.6922 27.1384 39.9954 31.8987C35.3491 36.6078 32.6935 42.8479 32.656 49.0978L31.2949 50.4589V38.9614C35.6308 34.5986 38.2763 28.6462 38.7483 22.1741C38.7568 22.0564 38.7421 21.9382 38.705 21.8262C38.6679 21.7142 38.6091 21.6106 38.5319 21.5214C38.4548 21.4321 38.3608 21.3589 38.2553 21.306C38.1499 21.253 38.0351 21.2214 37.9174 21.2128C37.4246 21.1767 36.9921 21.5487 36.9561 22.0436C36.564 27.422 34.5712 32.4089 31.2949 36.3019V13.9691C31.2949 13.7308 31.2003 13.5023 31.0318 13.3338C30.8633 13.1653 30.6348 13.0707 30.3965 13.0707C30.1582 13.0707 29.9297 13.1653 29.7612 13.3338C29.5927 13.5023 29.4981 13.7308 29.4981 13.9691V36.0507C25.8713 31.7164 23.8053 25.9933 23.7651 19.996C23.7212 13.4743 26.0895 7.21287 30.2809 2.71673C34.1267 6.72771 36.4874 12.1255 36.9461 17.9862C36.9848 18.4808 37.4193 18.8506 37.912 18.8118C38.0296 18.8026 38.1443 18.7704 38.2495 18.7168C38.3547 18.6633 38.4482 18.5896 38.5249 18.4999C38.6016 18.4102 38.6599 18.3063 38.6964 18.1941C38.7329 18.0819 38.7469 17.9636 38.7377 17.8459C38.2288 11.347 35.5267 5.37023 31.1287 1.01653C30.8981 0.788323 30.5882 0.666615 30.267 0.666016C30.1073 0.666607 29.9494 0.698925 29.8023 0.761092C29.6552 0.823259 29.522 0.914035 29.4103 1.02815C24.6325 5.88654 21.92 12.8044 21.9683 20.0079C22.0162 27.1443 24.7542 33.9288 29.4982 38.7184V43.7747L23.9692 38.2457C23.9197 33.5687 21.8879 28.915 18.3664 25.4405C14.8647 21.9855 10.1922 20.0085 5.5347 20.0085L5.45145 20.0087C5.30514 20.009 5.16037 20.0385 5.02555 20.0953C4.89072 20.1521 4.76854 20.2352 4.66609 20.3396C4.56301 20.4435 4.48161 20.5667 4.42661 20.7023C4.37162 20.8379 4.34414 20.983 4.34577 21.1293C4.38494 25.8142 6.42763 30.4946 9.95034 33.9703C13.4098 37.3836 17.9874 39.3442 22.582 39.3996L29.3438 46.1613C29.3915 46.209 29.4436 46.2497 29.4982 46.2845V58.9317L27.8724 57.3059C27.8352 53.3808 26.4631 49.4186 23.9926 46.1208C23.8486 45.9332 23.6364 45.8099 23.4021 45.7777C23.1678 45.7455 22.9302 45.807 22.7409 45.9488C22.5516 46.0906 22.4259 46.3014 22.391 46.5353C22.3561 46.7692 22.4148 47.0075 22.5545 47.1984C24.385 49.6418 25.5511 52.4809 25.9361 55.3698L15.1882 44.622C15.0197 44.4535 14.7912 44.3589 14.553 44.3589C14.3147 44.3589 14.0862 44.4535 13.9177 44.622C13.7493 44.7905 13.6546 45.019 13.6546 45.2573C13.6546 45.4955 13.7493 45.724 13.9177 45.8925L24.5399 56.5147C20.8364 56.0173 17.2491 54.2432 14.4288 51.4604C11.2318 48.3062 9.30874 44.1287 9.08677 39.9039C12.9444 40.0511 16.7335 41.5864 19.8244 44.2691C20.0046 44.4236 20.2386 44.5005 20.4753 44.4831C20.712 44.4656 20.9322 44.3552 21.0877 44.176C21.2433 43.9967 21.3216 43.7632 21.3056 43.5264C21.2896 43.2896 21.1805 43.0688 21.0022 42.9121C17.421 39.8037 12.9765 38.0954 8.47679 38.0954L8.38658 38.0956C8.23875 38.096 8.09245 38.1257 7.95621 38.183C7.81996 38.2404 7.69649 38.3243 7.59296 38.4299C7.48871 38.5348 7.40636 38.6594 7.35071 38.7964C7.29506 38.9335 7.26722 39.0802 7.26881 39.2281C7.31002 44.1575 9.45968 49.0822 13.1666 52.7397C16.8121 56.3366 21.6371 58.4004 26.4781 58.4532L29.761 61.7362C29.8866 61.8619 30.0467 61.9475 30.221 61.9822C30.3953 62.0169 30.576 61.9992 30.7402 61.9312C30.9044 61.8632 31.0448 61.748 31.1435 61.6003C31.2422 61.4525 31.2949 61.2788 31.2949 61.101V53L33.7672 50.5277C39.303 50.5037 44.8072 48.4435 49.2887 44.7116C49.4718 44.5591 49.5869 44.3401 49.6085 44.1028C49.6302 43.8655 49.5567 43.6294 49.4042 43.4463C49.2517 43.2631 49.0327 43.1481 48.7954 43.1264C48.5581 43.1048 48.322 43.1783 48.1388 43.3308C44.493 46.3668 40.1275 48.2107 35.6591 48.636L50.1499 34.145C50.3172 33.9763 50.4108 33.7481 50.4102 33.5105C50.4097 33.2729 50.3151 33.0452 50.1471 32.8772C49.9791 32.7092 49.7513 32.6146 49.5137 32.6141C49.2761 32.6136 49.048 32.7072 48.8793 32.8745L34.5518 47.2018C35.0527 42.0684 37.4304 37.0567 41.2745 33.1607C45.4861 28.8922 51.0906 26.3537 56.7377 26.1362C56.6122 31.2898 54.5973 36.3666 51.0255 40.4951C50.8696 40.6753 50.7916 40.91 50.8088 41.1477C50.826 41.3853 50.9369 41.6064 51.1171 41.7623C51.2973 41.9182 51.5321 41.9962 51.7697 41.979C52.0074 41.9618 52.2285 41.8509 52.3844 41.6707C56.3836 37.0481 58.5699 31.3084 58.5406 25.5088C58.5402 25.3521 58.5086 25.1971 58.4478 25.0528C58.3869 24.9084 58.298 24.7776 58.1861 24.668ZM11.2122 32.6914C8.2033 29.7226 6.38798 25.7946 6.16517 21.8189C10.1433 21.9885 14.0954 23.7508 17.1043 26.7197C19.7928 29.3723 21.5211 32.774 22.0223 36.2991L11.9324 26.2092C11.7639 26.0407 11.5354 25.9461 11.2972 25.9461C11.0589 25.9461 10.8304 26.0407 10.6619 26.2092C10.4934 26.3777 10.3988 26.6062 10.3988 26.8444C10.3988 27.0827 10.4934 27.3112 10.6619 27.4797L20.6329 37.4507C17.181 36.9556 13.8437 35.2877 11.2122 32.6914Z"
		fill="#0F0701"
	/>
	</g>
	<defs>
	<clipPath id="clip0_787_670">
		<rect
		width="61.3333"
		height="61.3333"
		fill="white"
		transform="translate(0.777344 0.666016)"
		/>
	</clipPath>
	</defs>
</svg>