<svg
	xmlns="http://www.w3.org/2000/svg"
	width="64"
	height="64"
	viewBox="0 0 64 64"
	fill="none"
>
	<path
	d="M41.5006 62.2703H18.8818C18.679 62.2703 18.4827 62.199 18.3271 62.0688C18.1715 61.9387 18.0666 61.7581 18.0308 61.5585L13.959 38.9388C13.9366 38.8143 13.9418 38.6864 13.9742 38.5641C14.0066 38.4418 14.0655 38.3281 14.1466 38.231C14.2278 38.134 14.3293 38.0559 14.4439 38.0023C14.5585 37.9487 14.6835 37.9209 14.81 37.9209H45.5724C45.6989 37.9209 45.8239 37.9487 45.9385 38.0023C46.0531 38.0559 46.1546 38.134 46.2357 38.231C46.3169 38.3281 46.3757 38.4418 46.4082 38.5641C46.4406 38.6864 46.4458 38.8143 46.4234 38.9388L42.3525 61.5585C42.3166 61.7583 42.2115 61.939 42.0558 62.0691C41.9001 62.1992 41.7035 62.2705 41.5006 62.2703ZM19.6048 60.5406H40.7776L44.5415 39.6506H15.8444L19.6048 60.5406Z"
	fill="#0F0701"
	/>
	<path
	d="M48.2485 39.6509H12.1326C11.7733 39.6505 11.4288 39.5075 11.1748 39.2535C10.9207 38.9994 10.7778 38.655 10.7773 38.2957V33.4896C10.778 33.1305 10.9211 32.7863 11.1751 32.5324C11.4291 32.2785 11.7734 32.1357 12.1326 32.1353H48.2485C48.6076 32.1357 48.9519 32.2785 49.206 32.5324C49.46 32.7863 49.603 33.1305 49.6037 33.4896V38.2966C49.603 38.6557 49.46 38.9999 49.206 39.2538C48.9519 39.5077 48.6076 39.6505 48.2485 39.6509ZM12.5071 37.9212H47.874V33.8641H12.5071V37.9212Z"
	fill="#0F0701"
	/>
	<path
	d="M30.6273 33.8638H30.5616C30.3329 33.8466 30.1204 33.7392 29.9709 33.5653C29.8213 33.3915 29.747 33.1654 29.7641 32.9367C29.9011 31.1076 30.2097 29.2956 30.6861 27.5244C32.3904 21.0909 36.1849 15.4065 41.4727 11.3652C41.5629 11.2962 41.6658 11.2455 41.7755 11.2163C41.8852 11.187 41.9997 11.1796 42.1123 11.1945C42.2249 11.2095 42.3334 11.2464 42.4317 11.3033C42.53 11.3602 42.6162 11.4359 42.6852 11.5261C42.7543 11.6163 42.8049 11.7192 42.8342 11.8289C42.8635 11.9386 42.8709 12.0531 42.8559 12.1657C42.841 12.2783 42.804 12.3868 42.7471 12.4851C42.6902 12.5834 42.6145 12.6696 42.5244 12.7386C37.5406 16.547 33.9642 21.9041 32.3579 27.9672C31.9105 29.6352 31.621 31.3416 31.493 33.0638C31.4766 33.2819 31.3782 33.4857 31.2175 33.6341C31.0569 33.7826 30.846 33.8646 30.6273 33.8638Z"
	fill="#0F0701"
	/>
	<path
	d="M41.2928 23.6863C38.7162 23.5859 36.2041 22.8513 33.9795 21.5475C33.8107 21.4567 33.6769 21.3126 33.5989 21.1375C33.4848 20.8781 30.8314 14.7704 34.194 9.35807C37.1042 4.68174 43.5042 2.11483 53.2175 1.72996C53.3364 1.72431 53.4551 1.74372 53.5659 1.78693C53.6768 1.83014 53.7773 1.89618 53.861 1.98077C53.9453 2.06447 54.0115 2.16466 54.0554 2.27507C54.0993 2.38548 54.12 2.50375 54.1161 2.6225C54.0962 3.25126 53.5315 18.0768 45.8999 22.4763C44.4994 23.2829 42.9088 23.7006 41.2928 23.6863ZM35.0753 20.1706C39.0346 22.2307 42.3834 22.5057 45.0316 20.9793C50.8158 17.6435 52.0785 6.77558 52.3258 3.50466C43.7637 3.9838 38.1645 6.25407 35.6668 10.2584C33.1475 14.3016 34.6437 19.0143 35.0744 20.1697L35.0753 20.1706ZM31.5215 28.6134C31.3505 28.6135 31.1833 28.5628 31.041 28.4678C30.8988 28.3728 30.7879 28.2378 30.7224 28.0798C29.7177 25.6545 28.2377 23.455 26.3696 21.6107C24.5014 19.7665 22.283 18.3149 19.845 17.3416C19.7373 17.301 19.6388 17.2394 19.5552 17.1602C19.4717 17.0811 19.4048 16.986 19.3584 16.8807C19.3121 16.7754 19.2872 16.6618 19.2853 16.5468C19.2834 16.4317 19.3044 16.3174 19.3473 16.2106C19.3901 16.1037 19.4538 16.0065 19.5347 15.9246C19.6155 15.8428 19.7119 15.7778 19.8182 15.7337C19.9245 15.6895 20.0385 15.667 20.1536 15.6675C20.2687 15.668 20.3825 15.6914 20.4884 15.7364C23.1401 16.7954 25.553 18.3744 27.5849 20.3803C29.6169 22.3863 31.2268 24.7787 32.3198 27.4164C32.3744 27.5478 32.3958 27.6907 32.382 27.8323C32.3682 27.974 32.3197 28.11 32.2408 28.2284C32.1618 28.3468 32.0549 28.4439 31.9294 28.5111C31.8039 28.5782 31.6638 28.6134 31.5215 28.6134Z"
	fill="#0F0701"
	/>
	<path
	d="M21.0681 24.7915C20.5176 24.7909 19.9693 24.7212 19.4361 24.5839C13.2956 23.0151 10.0601 12.9463 9.92261 12.5182C9.88688 12.4045 9.87503 12.2847 9.88779 12.1662C9.90055 12.0478 9.93765 11.9332 9.99676 11.8298C10.0559 11.7263 10.1357 11.6362 10.2313 11.565C10.3269 11.4939 10.4362 11.4433 10.5522 11.4164C17.2982 9.8155 22.1968 10.3621 25.1192 13.0406C28.5233 16.161 27.8634 20.9333 27.834 21.1357C27.8051 21.3257 27.7138 21.5007 27.5745 21.633C25.3916 23.7338 23.2095 24.7915 21.0681 24.7915ZM11.891 12.8866C12.7948 15.2936 15.61 21.8207 19.8668 22.9061C21.8361 23.4077 23.949 22.6337 26.1483 20.6012C26.2167 19.6352 26.2487 16.4118 23.9386 14.3041C21.5905 12.1645 17.5395 11.6879 11.891 12.8866Z"
	fill="#0F0701"
	/>
</svg>