<svg
	xmlns="http://www.w3.org/2000/svg"
	width="75"
	height="69"
	viewBox="0 0 75 69"
	fill="none"
	>
	<path
		d="M27.7124 23.3144C21.9438 21.0784 16.6124 22.6665 14.5866 23.4513C14.3818 23.5307 14.2058 23.6634 14.0797 23.8336C13.9536 24.0037 13.8827 24.2042 13.8755 24.4109C13.8466 25.227 13.7761 32.5119 20.2372 36.998C22.9868 38.9063 26.3214 39.8766 29.7034 39.8766C31.7754 39.8766 33.8625 39.5025 35.8477 38.7672V50.1878C35.8444 50.3351 35.8444 50.4825 35.8477 50.6298V65.7656C35.8477 66.0515 35.9696 66.3258 36.1864 66.5279C36.4032 66.7301 36.6973 66.8437 37.004 66.8437C37.3107 66.8437 37.6048 66.7301 37.8216 66.5279C38.0384 66.3258 38.1603 66.0515 38.1603 65.7656V52.1791C39.5188 52.5672 41.348 52.9338 43.4617 52.9338C45.3672 52.9338 47.4947 52.6351 49.6846 51.7855C55.4728 49.542 59.4723 44.3012 60.1232 38.1106C60.1455 37.8983 60.0997 37.6845 59.9917 37.4964C59.8836 37.3083 59.7181 37.1544 59.5162 37.054C53.9234 34.2746 47.1304 34.6865 42.2106 38.102C40.5594 39.2497 39.1805 40.7032 38.1603 42.3714V27.5612C39.52 27.9493 41.3503 28.3158 43.4628 28.3158C45.3683 28.3158 47.4958 28.0172 49.6834 27.1687C55.4728 24.9241 59.4723 19.6833 60.1232 13.4927C60.1455 13.2803 60.0997 13.0666 59.9917 12.8785C59.8836 12.6904 59.7181 12.5365 59.5162 12.4361C53.9234 9.65673 47.1304 10.0707 42.2106 13.4852C40.5593 14.6328 39.1804 16.0863 38.1603 17.7545V8.47187L42.9587 3.99765C43.066 3.89748 43.1512 3.77858 43.2092 3.64773C43.2673 3.51688 43.2972 3.37665 43.2971 3.23504C43.2971 3.09343 43.2671 2.95321 43.2089 2.8224C43.1508 2.69159 43.0655 2.57274 42.9581 2.47264C42.8507 2.37254 42.7232 2.29316 42.5828 2.23901C42.4425 2.18487 42.2921 2.15702 42.1402 2.15707C41.9884 2.15712 41.838 2.18506 41.6977 2.2393C41.5574 2.29354 41.4299 2.37301 41.3226 2.47318L37.004 6.50106L32.6842 2.47318C32.5776 2.37021 32.45 2.28808 32.3089 2.23157C32.1679 2.17507 32.0161 2.14533 31.8626 2.14408C31.7091 2.14284 31.5568 2.17012 31.4147 2.22433C31.2726 2.27854 31.1435 2.35859 31.035 2.45982C30.9264 2.56105 30.8406 2.68142 30.7824 2.81392C30.7243 2.94642 30.695 3.08838 30.6964 3.23154C30.6977 3.37469 30.7296 3.51616 30.7902 3.6477C30.8508 3.77923 30.9389 3.8982 31.0493 3.99765L35.8477 8.47187V25.5709C35.8444 25.7183 35.8444 25.8656 35.8477 26.013V30.1433C34.0001 27.0868 31.1811 24.6599 27.7124 23.3144ZM21.6189 35.2676C16.9593 32.0332 16.2771 27.0738 16.1938 25.185C18.3051 24.4863 22.4295 23.6023 26.8244 25.3057C31.5962 27.1558 34.9644 31.3939 35.7541 36.4708C31.0909 38.4923 25.6219 38.0492 21.6189 35.2676ZM43.5923 39.8324C47.5941 37.053 53.0643 36.6088 57.7275 38.6303C56.9366 43.7072 53.5684 47.9453 48.7966 49.7953C44.3982 51.5009 40.275 50.6147 38.1672 49.915C38.2504 48.0283 38.9338 43.0667 43.5923 39.8324ZM43.5923 15.2134C47.5929 12.4351 53.062 11.9898 57.7275 14.0113C56.9366 19.0892 53.5684 23.3263 48.7966 25.1763C44.4028 26.8798 40.2762 25.9957 38.1672 25.2971C38.2504 23.4082 38.9338 18.4478 43.5923 15.2134Z"
		fill="white"
	/>
</svg>