<svg
	xmlns="http://www.w3.org/2000/svg"
	width="65"
	height="65"
	viewBox="0 0 65 65"
	fill="none"
	>
	<g clipPath="url(#clip0_787_752)">
		<path
		d="M12.1875 65C11.8284 65 11.4839 64.8573 11.23 64.6034C10.976 64.3494 10.8333 64.005 10.8333 63.6458V51.4583H6.77083C4.97576 51.4562 3.25482 50.7421 1.98551 49.4728C0.716194 48.2035 0.00215022 46.4826 0 44.6875L0 6.77083C0 3.03875 3.03875 0 6.77083 0H58.2292C61.9612 0 65 3.03875 65 6.77083V44.6875C65 48.4196 61.9612 51.4583 58.2292 51.4583H26.2898L13.1435 64.6046C12.8898 64.8577 12.546 64.9999 12.1875 65ZM6.77083 2.70833C4.53104 2.70833 2.70833 4.53104 2.70833 6.77083V44.6875C2.70833 46.9273 4.53104 48.75 6.77083 48.75H12.1875C12.5466 48.75 12.8911 48.8927 13.145 49.1466C13.399 49.4006 13.5417 49.745 13.5417 50.1042V60.3769L24.7704 49.1481C24.8962 49.022 25.0456 48.9219 25.2101 48.8535C25.3746 48.7852 25.551 48.75 25.7292 48.75H58.2292C60.469 48.75 62.2917 46.9273 62.2917 44.6875V6.77083C62.2917 4.53104 60.469 2.70833 58.2292 2.70833H6.77083Z"
		fill="white"
		/>
		<path
		d="M32.5007 32.5C32.1415 32.5 31.7971 32.3573 31.5431 32.1034C31.2892 31.8494 31.1465 31.505 31.1465 31.1458V21.6667C31.1465 20.1744 29.9304 18.9583 28.4382 18.9583C26.9459 18.9583 25.7298 20.1744 25.7298 21.6667V31.1458C25.7298 31.505 25.5871 31.8494 25.3332 32.1034C25.0792 32.3573 24.7348 32.5 24.3757 32.5C24.0165 32.5 23.6721 32.3573 23.4181 32.1034C23.1642 31.8494 23.0215 31.505 23.0215 31.1458V21.6667C23.0215 18.6794 25.4509 16.25 28.4382 16.25C31.4254 16.25 33.8548 18.6794 33.8548 21.6667V31.1458C33.8548 31.505 33.7121 31.8494 33.4582 32.1034C33.2042 32.3573 32.8598 32.5 32.5007 32.5Z"
		fill="white"
		/>
		<path
		d="M32.5007 27.0833H24.3757C24.0165 27.0833 23.6721 26.9407 23.4181 26.6867C23.1642 26.4328 23.0215 26.0883 23.0215 25.7292C23.0215 25.37 23.1642 25.0256 23.4181 24.7716C23.6721 24.5177 24.0165 24.375 24.3757 24.375H32.5007C32.8598 24.375 33.2042 24.5177 33.4582 24.7716C33.7121 25.0256 33.8548 25.37 33.8548 25.7292C33.8548 26.0883 33.7121 26.4328 33.4582 26.6867C33.2042 26.9407 32.8598 27.0833 32.5007 27.0833ZM40.6257 32.5C40.2665 32.5 39.9221 32.3573 39.6681 32.1034C39.4142 31.8494 39.2715 31.505 39.2715 31.1458V17.6042C39.2715 17.245 39.4142 16.9006 39.6681 16.6466C39.9221 16.3927 40.2665 16.25 40.6257 16.25C40.9848 16.25 41.3292 16.3927 41.5832 16.6466C41.8372 16.9006 41.9798 17.245 41.9798 17.6042V31.1458C41.9798 31.505 41.8372 31.8494 41.5832 32.1034C41.3292 32.3573 40.9848 32.5 40.6257 32.5Z"
		fill="white"
		/>
	</g>
	<defs>
		<clipPath id="clip0_787_752">
		<rect width="65" height="65" fill="white" />
		</clipPath>
</defs>
</svg>