<svg
	xmlns="http://www.w3.org/2000/svg"
	width="68"
	height="63"
	viewBox="0 0 68 63"
	fill="none"
	>
	<g clipPath="url(#clip0_787_697)">
		<path
		d="M39.6113 0C24.0492 0 11.3887 11.7297 11.3887 26.1475C11.3887 32.2177 13.6332 37.8112 17.3934 42.2537L15.0655 44.4104L14.8306 44.1929C14.7381 44.1072 14.6283 44.0392 14.5075 43.9928C14.3866 43.9464 14.2571 43.9226 14.1263 43.9226C13.9955 43.9226 13.8659 43.9464 13.7451 43.9928C13.6242 44.0392 13.5144 44.1072 13.4219 44.1929L1.6247 55.1228C0.684117 55.9943 0.166016 57.1531 0.166016 58.3856C0.166016 59.6182 0.684117 60.7769 1.6247 61.6483C2.56541 62.5199 3.8161 62.9999 5.14648 62.9999C6.47687 62.9999 7.72756 62.5199 8.66827 61.6483L20.4656 50.7184C20.6524 50.5454 20.7573 50.3107 20.7573 50.0659C20.7573 49.8212 20.6524 49.5865 20.4656 49.4134L20.2308 49.1959L22.6024 46.9986C27.3355 50.3209 33.229 52.2949 39.6113 52.2949C55.1734 52.2949 67.834 40.5652 67.834 26.1475C67.834 11.7297 55.1734 0 39.6113 0ZM7.25953 60.3433C6.69521 60.8662 5.94482 61.1542 5.14662 61.1542C4.34841 61.1542 3.59802 60.8662 3.0337 60.3433C2.46925 59.8203 2.15834 59.1251 2.15834 58.3856C2.15834 57.6461 2.46925 56.9509 3.0337 56.4279L11.3091 48.7609L15.5352 52.6762L7.25953 60.3433ZM16.9437 51.3711L12.7176 47.4557L14.1262 46.1507L14.3604 46.3676L18.1166 49.8476L18.3523 50.066L16.9437 51.3711ZM18.8221 47.8907L16.4743 45.7156L18.6821 43.6701C19.4253 44.4311 20.2158 45.1512 21.0496 45.8268L18.8221 47.8907ZM39.6113 50.4492C25.1478 50.4492 13.3809 39.5475 13.3809 26.1475C13.3809 12.7474 25.1476 1.8457 39.6113 1.8457C54.075 1.8457 65.8418 12.7474 65.8418 26.1475C65.8418 39.5475 54.075 50.4492 39.6113 50.4492Z"
		fill="white"
		/>
		<path
		d="M52.6174 14.2837C52.5603 14.2129 52.4925 14.1501 52.4162 14.0972C49.1179 11.0884 44.595 9.22852 39.6113 9.22852C29.5419 9.22852 21.3496 16.8183 21.3496 26.1475C21.3496 30.765 23.3573 34.9557 26.6055 38.0116C26.6086 38.0152 26.612 38.0183 26.6151 38.0219C26.6409 38.0526 26.6681 38.0826 26.6985 38.1109C26.729 38.1392 26.7617 38.1646 26.7951 38.1885C26.7986 38.191 26.8017 38.194 26.8053 38.1965C30.1035 41.2061 34.6271 43.0664 39.6113 43.0664C49.6808 43.0664 57.873 35.4766 57.873 26.1475C57.873 21.5301 55.8655 17.3395 52.6174 14.2837ZM25.8235 34.1401C24.2521 31.8216 23.3417 29.0814 23.3417 26.1475C23.3417 17.836 30.6402 11.0742 39.6112 11.0742C42.777 11.0742 45.7339 11.9172 48.2359 13.3722C47.2427 13.2791 46.2662 13.2296 45.3139 13.2296C38.8199 13.2296 33.3216 15.4405 29.8319 19.4549C26.5741 23.2027 25.1959 28.3293 25.8235 34.1401ZM31.3835 20.6127C32.401 19.4408 33.6172 18.4297 34.9845 17.619C33.919 21.0822 33.8406 25.0739 34.7691 29.3285L28.0318 35.5705C27.0006 29.5767 28.1674 24.3123 31.3835 20.6127ZM49.0806 18.6791C49.1731 18.5934 49.2465 18.4917 49.2965 18.3797C49.3466 18.2677 49.3723 18.1477 49.3723 18.0265C49.3723 17.9053 49.3465 17.7853 49.2964 17.6734C49.2464 17.5614 49.173 17.4597 49.0805 17.374C48.8937 17.2009 48.6403 17.1037 48.3762 17.1037C48.112 17.1037 47.8587 17.2009 47.6719 17.374L36.4837 27.7397C35.7539 23.5034 36.1153 19.6142 37.5485 16.3879C39.8319 15.5214 42.4392 15.0752 45.3139 15.0752C47.1211 15.0752 49.0235 15.2571 50.9777 15.6162C52.3581 22.0688 51.2522 27.7567 47.8396 31.6822C44.6907 35.3045 39.8736 37.2191 33.9092 37.2191C32.4729 37.2191 30.9759 37.1023 29.4412 36.8749L49.0806 18.6791ZM39.6113 41.2207C36.4451 41.2207 33.4879 40.3776 30.9857 38.9221C31.9793 39.0152 32.9564 39.0648 33.9093 39.0648C40.4034 39.0648 45.9017 36.854 49.3912 32.8399C52.649 29.0922 54.0269 23.9656 53.399 18.1546C54.9706 20.473 55.881 23.2134 55.881 26.1473C55.8809 34.4589 48.5824 41.2207 39.6113 41.2207Z"
		fill="white"
		/>
	</g>
	<defs>
		<clipPath id="clip0_787_697">
		<rect width="68" height="63" fill="white" />
		</clipPath>
	</defs>
</svg>