<svg
	xmlns="http://www.w3.org/2000/svg"
	width="69"
	height="64"
	viewBox="0 0 69 64"
	fill="none"
	>
	<path
		d="M11.8392 12.9025C10.7739 12.8981 9.72265 13.1309 8.77056 13.5821C7.81848 14.0333 6.99243 14.6901 6.35943 15.4993C5.72644 16.3084 5.30434 17.2471 5.12737 18.2392C4.95041 19.2312 5.02356 20.2487 5.34091 21.2091C5.65826 22.1694 6.21085 23.0456 6.95386 23.7665C7.69686 24.4874 8.60935 25.0327 9.61727 25.3582C10.6252 25.6837 11.7002 25.7802 12.755 25.6398C13.8098 25.4995 14.8147 25.1263 15.6882 24.5505L24.5925 32.6401C23.3095 34.2887 22.6249 36.2847 22.6407 38.3307C22.6566 40.3767 23.3721 42.363 24.6806 43.9937L17.8024 50.3937C16.4008 49.4986 14.6969 49.1272 13.0217 49.3517C11.3464 49.5761 9.81917 50.3804 8.73639 51.6084C7.65362 52.8364 7.09252 54.4005 7.162 55.9972C7.23149 57.5939 7.92659 59.1093 9.11241 60.2492C10.2982 61.3892 11.8902 62.0724 13.5793 62.1662C15.2684 62.2601 16.9342 61.7579 18.2534 60.7572C19.5726 59.7565 20.4511 58.3286 20.7184 56.7506C20.9857 55.1726 20.6227 53.5571 19.6999 52.2177L26.5847 45.8177C27.6749 46.6117 28.9255 47.1868 30.2596 47.5075C31.5938 47.8283 32.9833 47.8881 34.3427 47.6831C35.7022 47.4781 37.0029 47.0127 38.1649 46.3155C39.327 45.6183 40.3258 44.704 41.0999 43.6289L50.3702 48.0385C50.1136 48.8 49.9833 49.5945 49.9839 50.3937C49.9761 52.2808 50.6817 54.1086 51.9738 55.5481C53.2659 56.9876 55.0595 57.9443 57.032 58.2459C59.0044 58.5476 61.0261 58.1745 62.7332 57.1937C64.4403 56.2129 65.7207 54.6889 66.3439 52.8959C66.9671 51.1029 66.8922 49.1587 66.1328 47.4132C65.3733 45.6677 63.9791 44.2355 62.2011 43.3744C60.4231 42.5133 58.3781 42.2798 56.4341 42.716C54.49 43.1522 52.7747 44.2293 51.5967 45.7537L42.3129 41.3377C42.7508 40.16 42.9362 38.9118 42.8582 37.6658C42.7803 36.4198 42.4406 35.2009 41.8589 34.0801L45.9248 31.5585C47.0751 32.5942 48.5904 33.1915 50.179 33.2354C51.7677 33.2792 53.3173 32.7665 54.5297 31.7959C55.742 30.8253 56.5314 29.4655 56.7458 27.9782C56.9602 26.4909 56.5846 24.9813 55.6911 23.7399C54.7976 22.4986 53.4495 21.6132 51.9063 21.2543C50.3631 20.8954 48.7339 21.0883 47.3322 21.7959C45.9306 22.5035 44.8557 23.6758 44.3143 25.087C43.773 26.4983 43.8035 28.0488 44.4001 29.4401L40.3342 31.9617C38.888 30.394 36.9392 29.3153 34.7843 28.8897L35.5839 18.0097C37.7236 17.8277 39.7122 16.8913 41.1537 15.3869C42.5952 13.8824 43.3838 11.9204 43.3624 9.89149C43.341 7.8626 42.5113 5.91576 41.0384 4.4387C39.5655 2.96164 37.5575 2.06276 35.4144 1.92108C33.2713 1.7794 31.1504 2.40531 29.4739 3.67416C27.7975 4.94301 26.6886 6.76169 26.3682 8.76798C26.0477 10.7743 26.5392 12.8209 27.7447 14.5004C28.9502 16.1798 30.7813 17.3688 32.8733 17.8305L32.0669 28.7105C30.0088 28.8323 28.0403 29.5496 26.4289 30.7649L17.5856 22.7009C18.2752 21.6846 18.642 20.5031 18.6427 19.2961C18.6418 18.454 18.465 17.6204 18.1224 16.8429C17.7797 16.0655 17.278 15.3596 16.646 14.7657C16.0139 14.1717 15.264 13.7014 14.4392 13.3817C13.6143 13.0619 12.7308 12.8991 11.8392 12.9025ZM58.3393 45.0625C59.4557 45.0625 60.5471 45.3751 61.4754 45.9609C62.4037 46.5467 63.1272 47.3794 63.5544 48.3535C63.9816 49.3277 64.0934 50.3996 63.8756 51.4337C63.6578 52.4679 63.1202 53.4178 62.3308 54.1634C61.5413 54.909 60.5355 55.4167 59.4405 55.6224C58.3455 55.8281 57.2106 55.7226 56.1791 55.3191C55.1477 54.9156 54.2661 54.2322 53.6458 53.3555C53.0256 52.4788 52.6945 51.4481 52.6945 50.3937C52.6963 48.9803 53.2916 47.6252 54.3498 46.6258C55.408 45.6264 56.8427 45.0642 58.3393 45.0625ZM50.3702 23.7377C51.1022 23.7377 51.8178 23.9428 52.4264 24.327C53.035 24.7113 53.5093 25.2574 53.7891 25.8963C54.069 26.5352 54.1418 27.2381 53.9985 27.9162C53.8552 28.5942 53.5021 29.2168 52.984 29.7053C52.4659 30.1937 51.806 30.526 51.0878 30.6601C50.3697 30.7942 49.6255 30.7241 48.9495 30.4586C48.2736 30.1932 47.6962 29.7443 47.2905 29.1688C46.8847 28.5933 46.6689 27.9171 46.6702 27.2257C46.672 26.3 47.0626 25.4128 47.7563 24.7589C48.45 24.105 49.39 23.7377 50.3702 23.7377ZM7.78005 19.2961C7.78005 18.5366 8.01851 17.7942 8.46527 17.1627C8.91204 16.5312 9.54704 16.039 10.29 15.7484C11.0329 15.4577 11.8504 15.3817 12.6391 15.5299C13.4278 15.678 14.1523 16.0437 14.7209 16.5808C15.2896 17.1178 15.6768 17.802 15.8337 18.5469C15.9906 19.2918 15.91 20.0639 15.6023 20.7656C15.2946 21.4672 14.7734 22.067 14.1048 22.4889C13.4362 22.9109 12.6501 23.1361 11.8459 23.1361C10.7676 23.1361 9.73342 22.7315 8.97092 22.0114C8.20841 21.2912 7.78005 20.3145 7.78005 19.2961ZM14.028 59.5201C13.2238 59.5201 12.4377 59.2949 11.7691 58.8729C11.1004 58.451 10.5793 57.8512 10.2716 57.1496C9.96383 56.4479 9.88331 55.6758 10.0402 54.9309C10.1971 54.186 10.5843 53.5018 11.1529 52.9648C11.7216 52.4277 12.446 52.062 13.2347 51.9139C14.0234 51.7657 14.841 51.8417 15.5839 52.1324C16.3268 52.423 16.9618 52.9152 17.4086 53.5467C17.8554 54.1782 18.0938 54.9206 18.0938 55.6801C18.0938 56.6985 17.6655 57.6752 16.903 58.3954C16.1405 59.1155 15.1063 59.5201 14.028 59.5201ZM38.9247 34.3617C39.6439 35.3867 40.063 36.5733 40.1391 37.8009C40.2153 39.0284 39.9459 40.2531 39.3584 41.3505C38.831 42.342 38.061 43.2005 37.1122 43.8549C36.1634 44.5093 35.0631 44.9407 33.9025 45.1134C32.742 45.286 31.5546 45.195 30.4387 44.8478C29.3228 44.5006 28.3106 43.9072 27.486 43.1169C26.7561 42.4238 26.1882 41.5937 25.8192 40.6804C25.4501 39.7671 25.288 38.7908 25.3434 37.8146C25.3988 36.8384 25.6704 35.8841 26.1406 35.0132C26.6109 34.1423 27.2694 33.3744 28.0736 32.7589C28.8777 32.1433 29.8097 31.694 30.8092 31.4399C31.8087 31.1858 32.8535 31.1325 33.8761 31.2836C34.8988 31.4347 35.8765 31.7867 36.7461 32.3169C37.6158 32.8471 38.3579 33.5437 38.9247 34.3617ZM29.0175 9.98407C29.0175 8.89548 29.3593 7.83134 29.9997 6.92621C30.64 6.02109 31.5502 5.31563 32.6151 4.89904C33.68 4.48246 34.8517 4.37346 35.9822 4.58583C37.1127 4.7982 38.1511 5.32241 38.9661 6.09216C39.7811 6.86191 40.3362 7.84262 40.5611 8.9103C40.7859 9.97797 40.6705 11.0846 40.2294 12.0904C39.7883 13.0961 39.0414 13.9557 38.083 14.5605C37.1246 15.1653 35.9979 15.4881 34.8453 15.4881C33.3002 15.4864 31.8189 14.906 30.7264 13.8741C29.6339 12.8423 29.0193 11.4433 29.0175 9.98407Z"
		fill="white"
	/>
</svg>