<svg
	xmlns="http://www.w3.org/2000/svg"
	width="54"
	height="55"
	viewBox="0 0 54 55"
	fill="none"
	>
	<g clipPath="url(#clip0_787_850)">
		<path
		d="M22.6062 2.88167C19.5917 0.254725 14.8945 -0.675981 10.8929 -0.0549811C5.10145 0.828872 1.74868 4.88523 1.60574 8.72081C1.44136 9.59037 1.67642 10.5457 1.90671 11.401C2.67065 14.2423 5.03395 16.4651 8.00315 17.6411C10.8397 18.764 13.7716 18.7712 16.8893 18.0072C17.288 18.6933 17.8423 19.4906 18.1369 20.041C18.4172 20.5627 18.9787 20.9145 19.6203 20.9558C19.7339 20.9637 19.8442 20.9685 19.9491 20.9717C20.0532 21.0579 20.1785 21.1149 20.312 21.1368C20.4454 21.1586 20.5823 21.1446 20.7086 21.0961C20.8348 21.0476 20.9459 20.9664 21.0304 20.8608C21.1149 20.7552 21.1698 20.629 21.1895 20.4952C21.4874 18.8742 21.8495 17.2656 22.275 15.6733C26.6681 12.6414 27.224 6.34481 22.6054 2.88246L22.6062 2.88167ZM20.1786 19.443C18.0202 16.716 18.0273 16.0839 16.2636 16.4301C16.1842 16.4412 15.4472 16.6096 14.1163 16.6564C7.85386 16.8677 3.60295 13.4085 2.89857 10.0621C2.15527 6.55923 5.11415 2.03514 11.0732 1.1227H11.0748C15.4853 0.438166 21.2189 1.84852 23.4337 5.69999C24.9663 8.34599 24.6677 11.7599 21.5643 14.1923C21.4653 14.2697 21.3933 14.3764 21.3586 14.4972C20.895 16.1283 20.5013 17.7783 20.1786 19.443ZM24.7424 19.3818C24.871 20.5683 25.9947 21.6705 26.9627 22.0104C26.9921 22.0207 27.0215 22.0199 27.0509 22.0263C27.7537 27.3468 30.3433 30.243 33.3617 31.4151C35.6512 32.5364 38.1471 32.1775 40.3063 30.9029C43.1135 29.2456 43.9179 25.3679 44.4325 22.39C45.8937 22.1382 46.9181 20.5595 46.4138 18.664C46.2669 18.1113 45.9985 17.6324 45.4855 17.3775C46.907 12.5771 44.6064 7.9672 40.7335 6.54255C38.2781 5.64043 35.1525 6.35673 33.2807 8.20384C31.7258 7.73531 29.8739 8.18002 28.5502 9.37278C26.9667 10.7998 25.9208 13.2886 26.4688 16.9503C25.3713 17.0591 24.6018 18.0779 24.7424 19.3818ZM30.19 27.431C28.8337 25.4823 28.1539 22.903 28.0475 19.3668C28.6439 18.2637 29.3395 16.8994 29.8271 15.4931C33.7326 17.2195 37.7373 16.9209 41.7547 14.6108C41.9239 15.3509 42.1089 16.0577 42.2892 16.7478C43.2548 20.4356 42.9205 19.7003 43.1151 20.3372C42.9689 22.3288 42.7244 24.3959 41.9215 26.2772C41.0035 28.4276 39.3724 30.0262 37.5562 30.5527C34.7181 31.3786 31.7036 29.6061 30.19 27.431ZM45.0686 18.5345C45.1464 18.6274 45.21 18.7696 45.2632 18.9697C45.5887 20.195 44.9932 21.0686 44.2387 21.2043C44.3023 20.4896 44.292 20.5548 44.3396 19.8424C44.6168 19.4256 44.8585 18.9862 45.0622 18.529L45.0686 18.5345ZM29.3475 10.2574C30.4497 9.26478 32.0046 8.93761 33.2156 9.44426C33.3303 9.49273 33.4573 9.50394 33.5787 9.47629C33.7001 9.44865 33.8098 9.38355 33.8922 9.2902C35.3859 7.60031 38.2122 6.88243 40.3222 7.66067C44.172 9.07658 45.8572 13.9803 43.8877 18.2129C43.5256 16.6763 43.0801 15.2008 42.7442 13.5514C42.7251 13.4567 42.6831 13.368 42.622 13.2931C42.5609 13.2181 42.4825 13.1592 42.3935 13.1214C42.3046 13.0835 42.2077 13.0679 42.1114 13.0759C42.015 13.0838 41.9221 13.1151 41.8405 13.1671C37.7413 15.7694 33.6674 16.0934 29.7326 14.1335C29.6547 14.0947 29.5692 14.0734 29.4821 14.0712C29.3951 14.069 29.3086 14.0859 29.2288 14.1208C29.149 14.1556 29.0778 14.2075 29.0203 14.2728C28.9627 14.3381 28.9201 14.4153 28.8956 14.4988C28.6105 15.4692 28.1849 16.4452 27.7441 17.3497C27.2613 14.7887 27.4273 11.9878 29.3482 10.2582L29.3475 10.2574ZM26.6744 18.1232C26.6784 18.1232 26.6816 18.1216 26.6848 18.1224C26.7404 18.3733 26.7967 18.6147 26.8539 18.845C26.8198 19.1261 26.8992 20.4206 26.9159 20.6524C26.4108 20.3046 25.9788 19.7233 25.9272 19.254C25.8462 18.5036 26.2972 18.0723 26.6744 18.1232ZM52.4261 47.446C50.3979 37.5251 41.6984 32.0957 33.403 33.4989C26.1884 34.7615 20.7869 39.2086 17.7922 45.1406C17.257 46.2024 17.6588 47.5278 18.8039 48.0058L20.5073 49.6393C20.6741 49.6449 29.2696 50.3858 49.2107 50.2151C50.4416 50.2071 52.3141 49.1398 52.3705 47.9439C52.4324 47.7731 52.4785 47.6643 52.4261 47.446ZM37.0099 34.5392C36.8828 35.7994 34.7943 36.2545 34.4687 34.5582C35.3134 34.4741 36.164 34.4678 37.0099 34.5392ZM35.7258 37.8967C36.296 39.45 36.8288 40.9787 37.5189 42.5081C37.0194 43.2737 36.4087 44.1115 35.9045 44.8151C35.2875 44.1631 34.4258 43.1768 33.9271 42.4629C34.5299 40.9882 35.1509 39.3499 35.7258 37.8967ZM18.8556 45.6767C21.654 40.1337 26.5704 36.0599 33.291 34.7369C33.4451 35.6152 33.997 36.4427 34.9102 36.7357C34.0486 38.8758 33.4268 40.5554 32.7066 42.3025C32.6703 42.3902 32.6556 42.4854 32.6636 42.58C32.6716 42.6747 32.7021 42.766 32.7526 42.8464C33.4125 43.9002 34.9658 45.5996 35.5789 46.1786C35.6433 46.2393 35.7205 46.2849 35.8048 46.3121C35.8891 46.3392 35.9784 46.3472 36.0662 46.3355C36.154 46.3238 36.2381 46.2927 36.3123 46.2443C36.3865 46.196 36.449 46.1318 36.4953 46.0563C36.4993 46.0483 38.1868 43.6882 38.6942 42.8814C38.8149 42.69 38.8086 42.4621 38.7165 42.2628C37.9223 40.5506 37.4768 39.1657 36.539 36.6865C37.4919 36.3648 38.0724 35.6573 38.1828 34.6893C44.4929 35.7327 49.6721 40.2298 51.2143 47.4206C49.985 47.4603 50.9125 47.5992 38.1606 47.6985C23.274 47.6604 19.8458 46.8369 19.2709 46.9266C18.8373 46.7535 18.5975 46.1897 18.8556 45.6767Z"
		fill="white"
		/>
		<path
		d="M7.21287 6.787C6.25675 6.98156 5.59525 7.95833 5.76757 8.91921C5.94069 9.87374 6.89522 10.563 7.86404 10.4122C8.8281 10.2621 9.53487 9.31865 9.40781 8.35062C9.28075 7.38974 8.30795 6.56545 7.21287 6.787ZM7.62898 8.90095C7.4916 8.91842 7.29784 8.785 7.27242 8.64762C7.24781 8.50945 7.38042 8.31409 7.51781 8.2855L7.53766 8.28074H7.54798C7.68616 8.26248 7.87357 8.41098 7.89184 8.55074C7.9101 8.68971 7.76795 8.8795 7.62898 8.90095ZM12.3794 6.73221C11.4233 6.92677 10.7618 7.90353 10.9349 8.86442C11.1088 9.82847 12.0752 10.5074 13.0322 10.3574C13.9954 10.2065 14.7022 9.26227 14.5743 8.29662C14.4481 7.34209 13.4943 6.50589 12.3794 6.73221ZM12.7963 8.84695C12.6621 8.86839 12.4644 8.7318 12.439 8.59283C12.4151 8.45465 12.547 8.2585 12.6843 8.23071C12.691 8.22921 12.6976 8.22762 12.7042 8.22595L12.7129 8.22515C12.8463 8.21006 13.0401 8.35698 13.0592 8.49674C13.0774 8.63492 12.9337 8.8255 12.7963 8.84695ZM17.4911 6.787C16.535 6.98156 15.8735 7.95833 16.0466 8.91921C16.2039 9.79036 17.0083 10.4328 17.8739 10.4328C18.9753 10.4328 19.825 9.40362 19.6861 8.35062C19.559 7.38577 18.5822 6.56624 17.4911 6.787ZM17.9072 8.90095C17.7715 8.91842 17.5761 8.785 17.5515 8.64762C17.5261 8.50945 17.6595 8.31409 17.7961 8.2855L17.8159 8.28074H17.8262C17.9597 8.26248 18.1518 8.41098 18.1709 8.55074C18.1892 8.68971 18.047 8.8795 17.9072 8.90095Z"
		fill="white"
		/>
	</g>
	<defs>
		<clipPath id="clip0_787_850">
		<rect
			width="54"
			height="53.5073"
			fill="white"
			transform="translate(0 0.954102)"
		/>
		</clipPath>
	</defs>
</svg>