<svg width="20" height="19" viewBox="0 0 20 19" fill="none" xmlns="http://www.w3.org/2000/svg">
<path d="M19.707 8.79303L11.707 0.793031C11.5671 0.653222 11.389 0.558015 11.195 0.519448C11.0011 0.48088 10.8 0.500683 10.6173 0.576353C10.4346 0.652023 10.2785 0.780163 10.1686 0.944573C10.0587 1.10898 10 1.30228 10 1.50003V5.04503C7.26829 5.29782 4.72923 6.56089 2.87969 8.58706C1.03015 10.6132 0.00327173 13.2567 0 16V17.5C0.000157856 17.7076 0.0649097 17.91 0.185274 18.0791C0.305639 18.2482 0.475649 18.3757 0.671726 18.4439C0.867802 18.512 1.08022 18.5174 1.27953 18.4594C1.47883 18.4014 1.65514 18.2828 1.784 18.12C2.7637 16.955 3.96576 15.9969 5.31994 15.3017C6.67413 14.6065 8.15329 14.1881 9.671 14.071C9.721 14.065 9.846 14.055 10 14.045V17.5C10 17.6978 10.0587 17.8911 10.1686 18.0555C10.2785 18.2199 10.4346 18.348 10.6173 18.4237C10.8 18.4994 11.0011 18.5192 11.195 18.4806C11.389 18.442 11.5671 18.3468 11.707 18.207L19.707 10.207C19.8945 10.0195 19.9998 9.7652 19.9998 9.50003C19.9998 9.23487 19.8945 8.98056 19.707 8.79303ZM12 15.086V13C12 12.7348 11.8946 12.4805 11.7071 12.2929C11.5196 12.1054 11.2652 12 11 12C10.745 12 9.704 12.05 9.438 12.085C6.74286 12.3334 4.17742 13.3573 2.052 15.033C2.29324 12.8275 3.33954 10.7884 4.99055 9.30619C6.64157 7.824 8.78128 7.00288 11 7.00003C11.2652 7.00003 11.5196 6.89467 11.7071 6.70714C11.8946 6.5196 12 6.26525 12 6.00003V3.91403L17.586 9.50003L12 15.086Z" fill="#0F0701"/>
</svg>
