<svg width="24" height="24" viewBox="0 0 24 24" fill="none" xmlns="http://www.w3.org/2000/svg">
<path fill-rule="evenodd" clip-rule="evenodd" d="M9.81889 1.90907C8.73392 1.90907 7.69338 2.34007 6.92618 3.10727C6.15899 3.87446 5.72798 4.915 5.72798 5.99998C5.72798 7.08496 6.15899 8.12549 6.92618 8.89269C7.69338 9.65988 8.73392 10.0909 9.81889 10.0909C10.9039 10.0909 11.9444 9.65988 12.7116 8.89269C13.4788 8.12549 13.9098 7.08496 13.9098 5.99998C13.9098 4.915 13.4788 3.87446 12.7116 3.10727C11.9444 2.34007 10.9039 1.90907 9.81889 1.90907ZM4.09162 5.99998C4.09162 5.24786 4.23976 4.50311 4.52758 3.80825C4.8154 3.11338 5.23727 2.48201 5.7691 1.95018C6.30093 1.41836 6.93229 0.99649 7.62716 0.708668C8.32203 0.420845 9.06678 0.272705 9.81889 0.272705C10.571 0.272705 11.3158 0.420845 12.0106 0.708668C12.7055 0.99649 13.3369 1.41836 13.8687 1.95018C14.4005 2.48201 14.8224 3.11338 15.1102 3.80825C15.398 4.50311 15.5462 5.24786 15.5462 5.99998C15.5462 7.51895 14.9428 8.9757 13.8687 10.0498C12.7946 11.1238 11.3379 11.7273 9.81889 11.7273C8.29992 11.7273 6.84317 11.1238 5.7691 10.0498C4.69503 8.9757 4.09162 7.51895 4.09162 5.99998Z" fill="black"/>
<path fill-rule="evenodd" clip-rule="evenodd" d="M9.81889 11.7273C7.72127 11.7273 5.70956 12.5605 4.22632 14.0438C2.74308 15.527 1.9098 17.5387 1.9098 19.6363C1.9098 19.8533 1.8236 20.0614 1.67016 20.2149C1.51672 20.3683 1.30861 20.4545 1.09162 20.4545C0.874624 20.4545 0.666516 20.3683 0.513077 20.2149C0.359639 20.0614 0.273438 19.8533 0.273438 19.6363C0.273437 17.1047 1.27912 14.6768 3.06924 12.8867C4.85936 11.0966 7.28728 10.0909 9.81889 10.0909C10.0359 10.0909 10.244 10.1771 10.3974 10.3305C10.5509 10.484 10.6371 10.6921 10.6371 10.9091C10.6371 11.1261 10.5509 11.3342 10.3974 11.4876C10.244 11.641 10.0359 11.7273 9.81889 11.7273ZM17.4553 12.8182C16.665 12.8182 15.8878 13.0202 15.1975 13.405C14.5072 13.7899 13.9268 14.3448 13.5113 15.017C13.0958 15.6893 12.8591 16.4566 12.8236 17.2461C12.7881 18.0356 12.9549 18.8211 13.3084 19.528C13.6618 20.2348 14.1901 20.8396 14.843 21.2849C15.4959 21.7302 16.2518 22.0012 17.0389 22.0722C17.826 22.1431 18.6182 22.0117 19.3402 21.6904C20.0622 21.3691 20.6902 20.8686 21.1643 20.2363C21.2289 20.1504 21.3097 20.078 21.4022 20.0233C21.4948 19.9686 21.5972 19.9326 21.7036 19.9175C21.81 19.9023 21.9183 19.9083 22.0225 19.935C22.1266 19.9617 22.2244 20.0087 22.3103 20.0732C22.3963 20.1378 22.4687 20.2186 22.5234 20.3111C22.5781 20.4037 22.6141 20.5061 22.6292 20.6125C22.6444 20.7189 22.6384 20.8272 22.6117 20.9314C22.585 21.0355 22.538 21.1333 22.4734 21.2193C21.5798 22.4108 20.2913 23.2455 18.8386 23.5739C17.3858 23.9024 15.8636 23.7032 14.5443 23.012C13.225 22.3208 12.1946 21.1827 11.6376 19.8014C11.0807 18.42 11.0334 16.8855 11.5043 15.4725C11.9751 14.0595 12.9334 12.8601 14.2077 12.089C15.4819 11.3179 16.989 11.0254 18.4592 11.2638C19.9294 11.5021 21.2669 12.2559 22.2322 13.3901C23.1975 14.5244 23.7277 15.9651 23.728 17.4545C23.728 17.6715 23.6418 17.8796 23.4883 18.0331C23.3349 18.1865 23.1268 18.2727 22.9098 18.2727C22.6928 18.2727 22.4847 18.1865 22.3313 18.0331C22.1778 17.8796 22.0916 17.6715 22.0916 17.4545C22.0916 16.2249 21.6031 15.0456 20.7337 14.1761C19.8642 13.3066 18.6849 12.8182 17.4553 12.8182Z" fill="black"/>
<path fill-rule="evenodd" clip-rule="evenodd" d="M14.9483 19.9614C14.7951 19.808 14.7091 19.6001 14.7091 19.3833C14.7091 19.1664 14.7951 18.9585 14.9483 18.8051L18.8058 14.9476C18.9609 14.8031 19.166 14.7244 19.378 14.7282C19.59 14.7319 19.7922 14.8178 19.9421 14.9677C20.092 15.1176 20.1779 15.3198 20.1816 15.5318C20.1854 15.7437 20.1067 15.9489 19.9622 16.104L16.1058 19.9614C15.9524 20.1147 15.7444 20.2007 15.5276 20.2007C15.3108 20.2007 15.1028 20.1147 14.9494 19.9614H14.9483Z" fill="black"/>
<path fill-rule="evenodd" clip-rule="evenodd" d="M19.9622 19.9614C19.8088 20.1147 19.6008 20.2007 19.384 20.2007C19.1672 20.2007 18.9592 20.1147 18.8058 19.9614L14.9483 16.1051C14.7992 15.9508 14.7167 15.7442 14.7184 15.5297C14.7202 15.3151 14.8061 15.1099 14.9578 14.9581C15.1094 14.8063 15.3146 14.7202 15.5291 14.7182C15.7436 14.7163 15.9503 14.7986 16.1047 14.9476L19.9622 18.804C20.0382 18.88 20.0985 18.9702 20.1397 19.0695C20.1808 19.1688 20.202 19.2752 20.202 19.3827C20.202 19.4902 20.1808 19.5966 20.1397 19.6959C20.0985 19.7952 20.0382 19.8855 19.9622 19.9614Z" fill="black"/>
</svg>
