<svg width="24" height="18" viewBox="0 0 24 18" fill="none" xmlns="http://www.w3.org/2000/svg">
<path d="M23.7865 8.96438C23.6844 8.78507 23.5477 8.62789 23.3842 8.50201C23.2207 8.37614 23.0338 8.2841 22.8344 8.23127C22.1108 8.04502 21.3631 7.97015 20.617 8.00923C21.0171 6.02393 20.717 4.45368 20.411 3.52254C20.289 3.14005 20.0289 2.81669 19.6815 2.61552C19.3341 2.41434 18.9242 2.34976 18.5317 2.43437C17.514 2.66104 16.5462 3.07185 15.6763 3.64656C15.0391 2.345 14.1114 1.20723 12.9648 0.321049C12.687 0.112653 12.349 0 12.0017 0C11.6544 0 11.3164 0.112653 11.0385 0.321049C9.89169 1.20697 8.96397 2.34481 8.32713 3.64656C7.45714 3.07185 6.48942 2.66104 5.47169 2.43437C5.07923 2.34976 4.66933 2.41434 4.32189 2.61552C3.97445 2.81669 3.71439 3.14005 3.5924 3.52254C3.29235 4.45368 2.99231 6.02293 3.38637 8.00923C2.64027 7.97015 1.89257 8.04502 1.16903 8.23127C0.969583 8.2841 0.782664 8.37614 0.619185 8.50201C0.455706 8.62789 0.318942 8.78507 0.216881 8.96438C0.11007 9.14806 0.0409092 9.35118 0.0134343 9.56188C-0.0140406 9.77257 0.000720439 9.98663 0.0568562 10.1916C0.395908 11.4488 1.43707 13.8401 4.59055 15.7244C7.74404 17.6087 10.5145 17.6027 12.0067 17.6027C13.4989 17.6027 16.2743 17.6027 19.4078 15.7244C22.5613 13.8401 23.6025 11.4488 23.9415 10.1916C23.9984 9.98696 24.014 9.77308 23.9874 9.56239C23.9608 9.3517 23.8925 9.14841 23.7865 8.96438ZM5.11463 4.01462C5.11583 4.00965 5.11888 4.00533 5.12315 4.00254C5.12743 3.99976 5.13261 3.99871 5.13764 3.99961C6.06827 4.20984 6.94649 4.60693 7.71903 5.16679C7.36728 6.31753 7.19258 7.51507 7.20095 8.71834C7.20095 10.5926 7.57801 12.1189 8.11209 13.3471C7.35282 12.5871 6.69585 11.7314 6.15779 10.8017C4.35552 7.66318 4.73057 5.2008 5.11463 4.01462ZM5.41468 14.3512C2.74727 12.759 1.88214 10.8067 1.60009 9.7715C2.33603 9.59031 3.09968 9.5506 3.85044 9.65448C4.10108 10.3259 4.40718 10.9752 4.76558 11.5958C5.64557 13.1129 6.79845 14.4544 8.1661 15.5524C7.19901 15.2743 6.27261 14.8705 5.41068 14.3512H5.41468ZM12.0017 15.8424C11.0685 15.1483 8.8012 13.019 8.8012 8.71834C8.8012 4.47069 11.0395 2.32436 12.0017 1.60025C12.9638 2.32636 15.2022 4.47269 15.2022 8.72034C15.2022 13.019 12.9348 15.1483 12.0017 15.8424ZM16.2844 5.16679C17.057 4.60729 17.9352 4.21054 18.8657 4.00062C18.8708 3.99971 18.876 4.00076 18.8802 4.00354C18.8845 4.00633 18.8876 4.01065 18.8888 4.01562C19.2728 5.2008 19.6479 7.66318 17.8456 10.8017C17.308 11.7327 16.651 12.5894 15.8913 13.3501C16.4254 12.1239 16.8024 10.5956 16.8024 8.72134C16.8111 7.51707 16.6364 6.31849 16.2844 5.16679ZM22.4033 9.7735C22.1262 10.7987 21.2631 12.755 18.5937 14.3512C17.7317 14.8701 16.8053 15.2737 15.8383 15.5514C17.2059 14.4534 18.3588 13.1119 19.2388 11.5948C19.5972 10.9742 19.9033 10.3249 20.1539 9.65349C20.9045 9.55007 21.6679 9.59046 22.4033 9.7725V9.7735Z" fill="#68BB59"/>
</svg>
