<?xml version="1.0" encoding="utf-8"?>
<!-- Generator: Adobe Illustrator 27.0.0, SVG Export Plug-In . SVG Version: 6.00 Build 0)  -->
<svg version="1.1" id="Layer_1" xmlns="http://www.w3.org/2000/svg" xmlns:xlink="http://www.w3.org/1999/xlink" x="0px" y="0px"
	 viewBox="0 0 1080 1080" style="enable-background:new 0 0 1080 1080;" xml:space="preserve">
<style type="text/css">
	.st0{fill:#328C43;}
	.st1{fill:none;stroke:#328C43;stroke-width:5;stroke-miterlimit:10;}
	.st2{fill:#69BB59;}
	.st3{fill:#93CC87;}
	.st4{fill:#231F20;}
</style>
<path class="st0" d="M823.5,672.7L791,705.2c-10.1,10.1-26.6,10.1-36.7,0L617.3,568.2c-10.1-10.1-10.1-26.6,0-36.7l32.5-32.5
	c10.1-10.1,26.6-10.1,36.7,0L823.5,636C833.6,646.1,833.6,662.6,823.5,672.7z"/>
<rect x="580.4" y="474.4" transform="matrix(0.7071 0.7071 -0.7071 0.7071 533.8827 -291.1697)" class="st1" width="76" height="48.8"/>
<path class="st0" d="M467.3,164.7C365.5,164.7,283,247.3,283,349s82.5,184.3,184.3,184.3c101.8,0,184.3-82.5,184.3-184.3
	S569.1,164.7,467.3,164.7z M467.3,494.9c-80.6,0-145.9-65.3-145.9-145.9c0-80.6,65.3-145.9,145.9-145.9
	c80.6,0,145.9,65.3,145.9,145.9C613.2,429.6,547.9,494.9,467.3,494.9z"/>
<path class="st2" d="M470.1,417.7L470.1,417.7c-39.8,0-72.1-32.3-72.1-72.1v-72.1h72.1c39.8,0,72.1,32.3,72.1,72.1v0
	C542.3,385.4,510,417.7,470.1,417.7z"/>
<g>
	<path class="st0" d="M398,273.4c28.2,22.6,54.6,47.3,80.4,72.4c25.7,25.3,50.9,51.1,74.2,78.9c-28.2-22.6-54.6-47.2-80.4-72.4
		C446.4,326.9,421.2,301.1,398,273.4L398,273.4z"/>
</g>
<polygon class="st3" points="465.8,561.6 366.4,561.6 266.9,561.5 316.7,475.4 366.5,389.3 416.1,475.5 "/>
<g>
	<path class="st0" d="M358.2,528.4c0-5,3.5-8.6,8.2-8.6c5,0,8.2,3.6,8.2,8.6c0,4.9-3.2,8.6-8.2,8.6
		C361.5,537,358.2,533.2,358.2,528.4z M361.6,508.5l-1.9-66.8H373l-1.9,66.8H361.6z"/>
</g>
<g>
	<path class="st4" d="M172.3,815.2l4.4,9.3l4.3-9.3h4.5l-6.8,13.2v7h-4.1v-7l-6.9-13.2H172.3z"/>
	<path class="st4" d="M186.8,827.4c0-5.1,3.6-8.3,8.3-8.3s8.3,3.2,8.3,8.3c0,5-3.7,8.3-8.4,8.3C190.3,835.7,186.8,832.5,186.8,827.4
		z M199.1,827.4c0-3.2-2-4.8-4.1-4.8s-4.1,1.5-4.1,4.8c0,3.2,1.9,4.8,4,4.8C197.1,832.2,199.1,830.6,199.1,827.4z"/>
	<path class="st4" d="M217.4,835.4v-2c-1,1.4-2.8,2.2-4.8,2.2c-3.7,0-6.4-2.4-6.4-6.8v-9.4h4.1v8.8c0,2.6,1.4,4,3.6,4
		c2.2,0,3.6-1.4,3.6-4v-8.8h4.1v16.1H217.4z"/>
	<path class="st4" d="M238.7,819.1c2.1,0,4.1,1,5.2,2.5V814h4.1v21.5H244v-2.4c-1,1.5-2.8,2.6-5.3,2.6c-4.1,0-7.3-3.3-7.3-8.4
		S234.6,819.1,238.7,819.1z M239.7,822.7c-2.2,0-4.2,1.6-4.2,4.7s2.1,4.8,4.2,4.8c2.2,0,4.3-1.7,4.3-4.7
		C244,824.4,242,822.7,239.7,822.7z"/>
	<path class="st4" d="M251,827.4c0-5.1,3.6-8.3,8.3-8.3s8.3,3.2,8.3,8.3c0,5-3.7,8.3-8.4,8.3C254.5,835.7,251,832.5,251,827.4z
		 M263.4,827.4c0-3.2-2-4.8-4.1-4.8s-4.1,1.5-4.1,4.8c0,3.2,1.9,4.8,4,4.8C261.3,832.2,263.4,830.6,263.4,827.4z"/>
	<path class="st4" d="M278.2,822.6c-2.2,0-3.6,1.4-3.6,4v8.9h-4.1v-16.1h4.1v2c1-1.4,2.8-2.2,4.8-2.2c3.7,0,6.4,2.4,6.4,6.9v9.4
		h-4.1v-8.9C281.8,824,280.4,822.6,278.2,822.6z"/>
	<path class="st4" d="M292.3,812.3l-0.3,6.1h-2.8l-0.4-6.1H292.3z"/>
	<path class="st4" d="M300.1,815.4v4h3.6v3.3h-3.6v7.8c0,1.1,0.4,1.5,1.7,1.5h1.9v3.4h-2.6c-3.1,0-5.1-1.3-5.1-5v-7.7h-1.9v-3.3h1.9
		v-4H300.1z"/>
	<path class="st4" d="M317.6,814v7.4c1-1.4,2.8-2.2,5-2.2c3.6,0,6.3,2.4,6.3,6.9v9.4h-4.1v-8.9c0-2.6-1.4-4-3.6-4
		c-2.2,0-3.6,1.4-3.6,4v8.9h-4.1V814H317.6z"/>
	<path class="st4" d="M339,819.1c2.6,0,4.4,1.2,5.3,2.6v-2.3h4.1v16.1h-4.1v-2.3c-1,1.4-2.8,2.6-5.3,2.6c-4.1,0-7.3-3.3-7.3-8.4
		S334.9,819.1,339,819.1z M340,822.7c-2.2,0-4.2,1.6-4.2,4.7s2.1,4.8,4.2,4.8c2.2,0,4.3-1.7,4.3-4.7
		C344.3,824.4,342.3,822.7,340,822.7z"/>
	<path class="st4" d="M359.1,831.7l4.1-12.3h4.3l-5.9,16.1h-4.9l-5.9-16.1h4.4L359.1,831.7z"/>
	<path class="st4" d="M376.7,835.7c-4.7,0-8.1-3.2-8.1-8.3c0-5.1,3.3-8.3,8.1-8.3c4.6,0,7.9,3.2,7.9,7.9c0,0.5,0,1-0.1,1.6h-11.7
		c0.2,2.4,1.8,3.7,3.9,3.7c1.7,0,2.7-0.9,3.2-1.9h4.4C383.4,833.4,380.7,835.7,376.7,835.7z M372.8,825.9h7.6
		c-0.1-2.1-1.7-3.5-3.8-3.5C374.7,822.4,373.1,823.7,372.8,825.9z"/>
	<path class="st4" d="M400.8,819.1c2.6,0,4.4,1.2,5.3,2.6v-2.3h4.1v16.1h-4.1v-2.3c-1,1.4-2.8,2.6-5.3,2.6c-4.1,0-7.3-3.3-7.3-8.4
		S396.7,819.1,400.8,819.1z M401.9,822.7c-2.2,0-4.2,1.6-4.2,4.7s2.1,4.8,4.2,4.8c2.2,0,4.3-1.7,4.3-4.7
		C406.1,824.4,404.1,822.7,401.9,822.7z"/>
	<path class="st4" d="M421.9,822.6c-2.2,0-3.6,1.4-3.6,4v8.9h-4.1v-16.1h4.1v2c1-1.4,2.8-2.2,4.8-2.2c3.7,0,6.4,2.4,6.4,6.9v9.4
		h-4.1v-8.9C425.4,824,424,822.6,421.9,822.6z"/>
	<path class="st4" d="M448.7,819.4l-9.9,23.7h-4.3l3.5-8l-6.4-15.7h4.6l4.1,11.2l4.2-11.2H448.7z"/>
	<path class="st4" d="M464.1,819.1c2.1,0,4.1,1,5.2,2.5V814h4.1v21.5h-4.1v-2.4c-1,1.5-2.8,2.6-5.3,2.6c-4.1,0-7.3-3.3-7.3-8.4
		S460,819.1,464.1,819.1z M465.1,822.7c-2.2,0-4.2,1.6-4.2,4.7s2.1,4.8,4.2,4.8c2.2,0,4.3-1.7,4.3-4.7
		C469.4,824.4,467.4,822.7,465.1,822.7z"/>
	<path class="st4" d="M484.5,835.7c-4.7,0-8.1-3.2-8.1-8.3c0-5.1,3.3-8.3,8.1-8.3c4.6,0,7.9,3.2,7.9,7.9c0,0.5,0,1-0.1,1.6h-11.7
		c0.2,2.4,1.8,3.7,3.9,3.7c1.7,0,2.7-0.9,3.2-1.9h4.4C491.1,833.4,488.4,835.7,484.5,835.7z M480.6,825.9h7.6
		c-0.1-2.1-1.7-3.5-3.8-3.5C482.4,822.4,480.9,823.7,480.6,825.9z"/>
	<path class="st4" d="M500.1,815.4v4h3.6v3.3h-3.6v7.8c0,1.1,0.4,1.5,1.7,1.5h1.9v3.4h-2.6c-3.1,0-5.1-1.3-5.1-5v-7.7h-1.9v-3.3h1.9
		v-4H500.1z"/>
	<path class="st4" d="M513.6,835.7c-4.7,0-8.1-3.2-8.1-8.3c0-5.1,3.3-8.3,8.1-8.3c4.6,0,7.9,3.2,7.9,7.9c0,0.5,0,1-0.1,1.6h-11.7
		c0.2,2.4,1.8,3.7,3.9,3.7c1.7,0,2.7-0.9,3.2-1.9h4.4C520.3,833.4,517.6,835.7,513.6,835.7z M509.7,825.9h7.6
		c-0.1-2.1-1.7-3.5-3.8-3.5C511.6,822.4,510,823.7,509.7,825.9z"/>
	<path class="st4" d="M531.4,819.1c4,0,6.7,2.1,7.6,5.7h-4.4c-0.5-1.4-1.5-2.2-3.2-2.2c-2.3,0-3.8,1.7-3.8,4.8
		c0,3.1,1.5,4.8,3.8,4.8c1.7,0,2.7-0.8,3.2-2.2h4.4c-0.9,3.4-3.6,5.7-7.6,5.7c-4.6,0-7.9-3.2-7.9-8.3
		C523.4,822.4,526.8,819.1,531.4,819.1z"/>
	<path class="st4" d="M546.7,815.4v4h3.6v3.3h-3.6v7.8c0,1.1,0.4,1.5,1.7,1.5h1.9v3.4h-2.6c-3.1,0-5.1-1.3-5.1-5v-7.7h-1.9v-3.3h1.9
		v-4H546.7z"/>
	<path class="st4" d="M552.8,815.1c0-1.3,1-2.4,2.5-2.4c1.4,0,2.5,1,2.5,2.4c0,1.3-1.1,2.4-2.5,2.4
		C553.8,817.5,552.8,816.4,552.8,815.1z M557.3,819.4v16.1h-4.1v-16.1H557.3z"/>
	<path class="st4" d="M560.2,827.4c0-5.1,3.6-8.3,8.3-8.3c4.6,0,8.3,3.2,8.3,8.3c0,5-3.7,8.3-8.4,8.3
		C563.8,835.7,560.2,832.5,560.2,827.4z M572.6,827.4c0-3.2-2-4.8-4.1-4.8s-4.1,1.5-4.1,4.8c0,3.2,1.9,4.8,4,4.8
		C570.5,832.2,572.6,830.6,572.6,827.4z"/>
	<path class="st4" d="M587.5,822.6c-2.2,0-3.6,1.4-3.6,4v8.9h-4.1v-16.1h4.1v2c1-1.4,2.8-2.2,4.8-2.2c3.7,0,6.4,2.4,6.4,6.9v9.4H591
		v-8.9C591,824,589.6,822.6,587.5,822.6z"/>
	<path class="st4" d="M598.1,830.4h4.1c0.1,1.2,1.3,2.1,2.9,2.1c1.6,0,2.5-0.7,2.5-1.7c0-2.9-9.1-1-9.1-6.9c0-2.7,2.4-4.8,6.4-4.8
		c3.9,0,6.2,2.1,6.5,5.3h-3.9c-0.1-1.2-1.1-2.1-2.7-2.1c-1.5,0-2.3,0.6-2.3,1.5c0,2.9,8.9,1.1,9,7c0,2.8-2.4,4.8-6.3,4.8
		C601.1,835.7,598.2,833.4,598.1,830.4z"/>
	<path class="st4" d="M637,819.4l-10,23.7h-4.3l3.5-8l-6.4-15.7h4.6l4.1,11.2l4.2-11.2H637z"/>
	<path class="st4" d="M646.2,835.7c-4.7,0-8.1-3.2-8.1-8.3c0-5.1,3.3-8.3,8.1-8.3c4.6,0,7.9,3.2,7.9,7.9c0,0.5,0,1-0.1,1.6h-11.7
		c0.2,2.4,1.8,3.7,3.9,3.7c1.7,0,2.7-0.9,3.2-1.9h4.4C652.8,833.4,650.2,835.7,646.2,835.7z M642.3,825.9h7.6
		c-0.1-2.1-1.7-3.5-3.8-3.5C644.1,822.4,642.6,823.7,642.3,825.9z"/>
	<path class="st4" d="M661.8,815.4v4h3.6v3.3h-3.6v7.8c0,1.1,0.4,1.5,1.7,1.5h1.9v3.4h-2.6c-3.1,0-5.1-1.3-5.1-5v-7.7h-1.9v-3.3h1.9
		v-4H661.8z"/>
	<path class="st4" d="M667.6,833.3c0-1.3,1-2.4,2.5-2.4c1.4,0,2.5,1,2.5,2.4c0,1.3-1,2.4-2.5,2.4
		C668.6,835.6,667.6,834.6,667.6,833.3z"/>
	<path class="st4" d="M687.4,815.2l6.4,15.1l6.4-15.1h4.6v20.2h-4.1v-13.2l-5.4,13.2h-3.1l-5.5-13.2v13.2h-4.1v-20.2H687.4z"/>
	<path class="st4" d="M715.1,819.1c2.6,0,4.4,1.2,5.3,2.6v-2.3h4.1v16.1h-4.1v-2.3c-1,1.4-2.8,2.6-5.3,2.6c-4.1,0-7.3-3.3-7.3-8.4
		S711,819.1,715.1,819.1z M716.2,822.7c-2.2,0-4.2,1.6-4.2,4.7s2.1,4.8,4.2,4.8c2.2,0,4.3-1.7,4.3-4.7
		C720.4,824.4,718.4,822.7,716.2,822.7z"/>
	<path class="st4" d="M732.6,814v12.2l5.4-6.8h5.3l-7.1,8.1l7.1,8H738l-5.5-6.8v6.8h-4.1V814H732.6z"/>
	<path class="st4" d="M752.5,835.7c-4.7,0-8.1-3.2-8.1-8.3c0-5.1,3.3-8.3,8.1-8.3c4.6,0,7.9,3.2,7.9,7.9c0,0.5,0,1-0.1,1.6h-11.7
		c0.2,2.4,1.8,3.7,3.9,3.7c1.7,0,2.7-0.9,3.2-1.9h4.4C759.1,833.4,756.4,835.7,752.5,835.7z M748.5,825.9h7.6
		c-0.1-2.1-1.7-3.5-3.8-3.5C750.4,822.4,748.9,823.7,748.5,825.9z"/>
	<path class="st4" d="M776.5,819.1c2.6,0,4.4,1.2,5.3,2.6v-2.3h4.1v16.1h-4.1v-2.3c-1,1.4-2.8,2.6-5.3,2.6c-4.1,0-7.3-3.3-7.3-8.4
		S772.4,819.1,776.5,819.1z M777.6,822.7c-2.2,0-4.2,1.6-4.2,4.7s2.1,4.8,4.2,4.8c2.2,0,4.3-1.7,4.3-4.7
		C781.8,824.4,779.8,822.7,777.6,822.7z"/>
	<path class="st4" d="M803.1,819.1c2.1,0,4.1,1,5.2,2.5V814h4.1v21.5h-4.1v-2.4c-1,1.5-2.8,2.6-5.3,2.6c-4.1,0-7.3-3.3-7.3-8.4
		S799,819.1,803.1,819.1z M804.1,822.7c-2.2,0-4.2,1.6-4.2,4.7s2.1,4.8,4.2,4.8c2.2,0,4.3-1.7,4.3-4.7
		C808.4,824.4,806.4,822.7,804.1,822.7z"/>
	<path class="st4" d="M823.5,835.7c-4.7,0-8.1-3.2-8.1-8.3c0-5.1,3.3-8.3,8.1-8.3c4.6,0,7.9,3.2,7.9,7.9c0,0.5,0,1-0.1,1.6h-11.7
		c0.2,2.4,1.8,3.7,3.9,3.7c1.7,0,2.7-0.9,3.2-1.9h4.4C830.1,833.4,827.5,835.7,823.5,835.7z M819.6,825.9h7.6
		c-0.1-2.1-1.7-3.5-3.8-3.5C821.4,822.4,819.9,823.7,819.6,825.9z"/>
	<path class="st4" d="M839.1,815.4v4h3.6v3.3h-3.6v7.8c0,1.1,0.4,1.5,1.7,1.5h1.9v3.4h-2.6c-3.1,0-5.1-1.3-5.1-5v-7.7h-1.9v-3.3h1.9
		v-4H839.1z"/>
	<path class="st4" d="M852.6,835.7c-4.7,0-8.1-3.2-8.1-8.3c0-5.1,3.3-8.3,8.1-8.3c4.6,0,7.9,3.2,7.9,7.9c0,0.5,0,1-0.1,1.6h-11.7
		c0.2,2.4,1.8,3.7,3.9,3.7c1.7,0,2.7-0.9,3.2-1.9h4.4C859.3,833.4,856.6,835.7,852.6,835.7z M848.7,825.9h7.6
		c-0.1-2.1-1.7-3.5-3.8-3.5C850.6,822.4,849,823.7,848.7,825.9z"/>
	<path class="st4" d="M870.4,819.1c4,0,6.7,2.1,7.6,5.7h-4.4c-0.5-1.4-1.5-2.2-3.2-2.2c-2.3,0-3.8,1.7-3.8,4.8
		c0,3.1,1.5,4.8,3.8,4.8c1.7,0,2.7-0.8,3.2-2.2h4.4c-0.9,3.4-3.6,5.7-7.6,5.7c-4.6,0-7.9-3.2-7.9-8.3
		C862.5,822.4,865.8,819.1,870.4,819.1z"/>
	<path class="st4" d="M885.7,815.4v4h3.6v3.3h-3.6v7.8c0,1.1,0.4,1.5,1.7,1.5h1.9v3.4h-2.6c-3.1,0-5.1-1.3-5.1-5v-7.7h-1.9v-3.3h1.9
		v-4H885.7z"/>
	<path class="st4" d="M891.8,815.1c0-1.3,1-2.4,2.5-2.4c1.4,0,2.5,1,2.5,2.4c0,1.3-1.1,2.4-2.5,2.4
		C892.8,817.5,891.8,816.4,891.8,815.1z M896.3,819.4v16.1h-4.1v-16.1H896.3z"/>
	<path class="st4" d="M899.3,827.4c0-5.1,3.6-8.3,8.3-8.3c4.6,0,8.3,3.2,8.3,8.3c0,5-3.7,8.3-8.4,8.3
		C902.8,835.7,899.3,832.5,899.3,827.4z M911.6,827.4c0-3.2-2-4.8-4.1-4.8s-4.1,1.5-4.1,4.8c0,3.2,1.9,4.8,4,4.8
		C909.6,832.2,911.6,830.6,911.6,827.4z"/>
	<path class="st4" d="M926.5,822.6c-2.2,0-3.6,1.4-3.6,4v8.9h-4.1v-16.1h4.1v2c1-1.4,2.8-2.2,4.8-2.2c3.7,0,6.4,2.4,6.4,6.9v9.4H930
		v-8.9C930,824,928.6,822.6,926.5,822.6z"/>
	<path class="st4" d="M938.6,833.3c0-1.3,1-2.4,2.5-2.4c1.4,0,2.5,1,2.5,2.4c0,1.3-1,2.4-2.5,2.4
		C939.6,835.6,938.6,834.6,938.6,833.3z M943.2,814.8l-0.5,14h-3.4l-0.5-14H943.2z"/>
</g>
</svg>
