<?xml version="1.0" encoding="utf-8"?>
<!-- Generator: Adobe Illustrator 27.0.0, SVG Export Plug-In . SVG Version: 6.00 Build 0)  -->
<svg version="1.1" id="Layer_1" xmlns="http://www.w3.org/2000/svg" xmlns:xlink="http://www.w3.org/1999/xlink" x="0px" y="0px"
	 viewBox="0 0 1080 1080" style="enable-background:new 0 0 1080 1080;" xml:space="preserve">
<style type="text/css">
	.st0{fill:none;stroke:#328C43;stroke-width:15.9964;stroke-miterlimit:10;}
	.st1{fill:none;}
	.st2{fill:#69BB59;}
	.st3{fill:#328C43;}
	.st4{fill:#93CC87;}
</style>
<path class="st0" d="M672.2,653.1H314.1c-21.3,0-38.8-17.5-38.8-38.8V196.4c0-21.3,17.5-38.8,38.8-38.8h358.1
	c21.3,0,38.8,17.5,38.8,38.8v417.9C711,635.7,693.5,653.1,672.2,653.1z"/>
<rect x="496.7" y="906" class="st1" width="318.6" height="0"/>
<path class="st0" d="M308.9,253.1h-48.6c-0.4,0-0.7,0.3-0.7,0.7l0,0c0,0.4,0.3,0.7,0.7,0.7h48.6c0.4,0,0.7-0.3,0.7-0.7l0,0
	C309.6,253.5,309.2,253.1,308.9,253.1z"/>
<path class="st0" d="M308.9,284.6h-48.6c-0.4,0-0.7,0.3-0.7,0.7l0,0c0,0.4,0.3,0.7,0.7,0.7h48.6c0.4,0,0.7-0.3,0.7-0.7l0,0
	C309.6,284.9,309.2,284.6,308.9,284.6z"/>
<path class="st0" d="M308.9,380h-48.6c-0.4,0-0.7,0.3-0.7,0.7l0,0c0,0.4,0.3,0.7,0.7,0.7h48.6c0.4,0,0.7-0.3,0.7-0.7l0,0
	C309.6,380.3,309.2,380,308.9,380z"/>
<path class="st0" d="M308.9,411.5h-48.6c-0.4,0-0.7,0.3-0.7,0.7l0,0c0,0.4,0.3,0.7,0.7,0.7h48.6c0.4,0,0.7-0.3,0.7-0.7l0,0
	C309.6,411.8,309.2,411.5,308.9,411.5z"/>
<path class="st0" d="M308.9,508.9h-48.6c-0.4,0-0.7,0.3-0.7,0.7l0,0c0,0.4,0.3,0.7,0.7,0.7h48.6c0.4,0,0.7-0.3,0.7-0.7l0,0
	C309.6,509.2,309.2,508.9,308.9,508.9z"/>
<path class="st0" d="M308.9,540.3h-48.6c-0.4,0-0.7,0.3-0.7,0.7l0,0c0,0.4,0.3,0.7,0.7,0.7h48.6c0.4,0,0.7-0.3,0.7-0.7l0,0
	C309.6,540.6,309.2,540.3,308.9,540.3z"/>
<path class="st0" d="M376,647.4L376,647.4c-2.8,0-5-2.2-5-5V169.6c0-2.8,2.2-5,5-5l0,0c2.8,0,5,2.2,5,5v472.9
	C381,645.2,378.7,647.4,376,647.4z"/>
<path class="st2" d="M532.9,499.8L532.9,499.8c-54.4,0-98.6-44.1-98.6-98.6v-98.6h98.6c54.4,0,98.6,44.1,98.6,98.6v0
	C631.5,455.6,587.4,499.8,532.9,499.8z"/>
<g>
	<path class="st3" d="M434.4,302.6c38.6,30.9,74.5,64.6,109.9,99c35.2,34.6,69.6,69.8,101.3,107.7c-38.6-30.9-74.6-64.6-109.9-99
		C500.6,375.8,466.1,340.5,434.4,302.6L434.4,302.6z"/>
</g>
<polygon class="st4" points="782.9,748.7 656,748.7 529.1,748.6 592.6,638.7 656.1,528.8 719.5,638.8 "/>
<g>
	<path class="st3" d="M645.5,706.3c0-6.4,4.4-11,10.5-11c6.4,0,10.5,4.6,10.5,11c0,6.2-4.1,11-10.5,11
		C649.8,717.3,645.5,712.5,645.5,706.3z M650,680.9l-2.5-85.2h17l-2.5,85.2H650z"/>
</g>
<g>
	<path d="M224.4,848.3l4.9,10.4l4.9-10.4h5.1l-7.7,14.8v7.9h-4.6v-7.9l-7.7-14.8H224.4z"/>
	<path d="M240.7,862c0-5.7,4.1-9.3,9.3-9.3s9.3,3.6,9.3,9.3c0,5.7-4.2,9.3-9.4,9.3C244.7,871.3,240.7,867.7,240.7,862z M254.6,862
		c0-3.6-2.3-5.4-4.7-5.4c-2.4,0-4.6,1.7-4.6,5.4c0,3.6,2.1,5.4,4.5,5.4C252.3,867.4,254.6,865.6,254.6,862z"/>
	<path d="M275.2,871.1v-2.3c-1.1,1.5-3.1,2.5-5.4,2.5c-4.2,0-7.2-2.7-7.2-7.7V853h4.6v10c0,2.9,1.6,4.5,4,4.5c2.5,0,4-1.6,4-4.5v-10
		h4.6v18.1H275.2z"/>
	<path d="M296.6,846.9v8.3c1.2-1.5,3.2-2.5,5.6-2.5c4.1,0,7.1,2.7,7.1,7.7v10.6h-4.6v-10c0-2.9-1.6-4.5-4-4.5
		c-2.5,0-4.1,1.6-4.1,4.5v10H292v-24.2H296.6z"/>
	<path d="M320.7,852.7c2.9,0,4.9,1.4,6,2.9V853h4.6v18.1h-4.6v-2.6c-1.1,1.6-3.1,2.9-6,2.9c-4.6,0-8.2-3.8-8.2-9.4
		S316.1,852.7,320.7,852.7z M321.9,856.7c-2.4,0-4.8,1.8-4.8,5.3c0,3.4,2.3,5.4,4.8,5.4c2.5,0,4.8-1.9,4.8-5.3
		S324.4,856.7,321.9,856.7z"/>
	<path d="M343.3,866.8l4.6-13.9h4.9l-6.7,18.1h-5.5l-6.7-18.1h4.9L343.3,866.8z"/>
	<path d="M363.2,871.3c-5.3,0-9.1-3.7-9.1-9.3c0-5.7,3.7-9.3,9.1-9.3c5.2,0,8.9,3.6,8.9,8.9c0,0.6,0,1.2-0.1,1.8h-13.2
		c0.2,2.7,2.1,4.2,4.3,4.2c2,0,3-1,3.6-2.2h4.9C370.7,868.7,367.7,871.3,363.2,871.3z M358.8,860.3h8.6c-0.1-2.4-2-3.9-4.3-3.9
		C360.9,856.4,359.2,857.8,358.8,860.3z"/>
	<path d="M391.9,856.6c-2.5,0-4.1,1.6-4.1,4.5v10h-4.6V853h4.6v2.3c1.2-1.5,3.1-2.5,5.5-2.5c4.2,0,7.2,2.7,7.2,7.7v10.6h-4.6v-10
		C395.9,858.2,394.3,856.6,391.9,856.6z"/>
	<path d="M403.7,862c0-5.7,4.1-9.3,9.3-9.3s9.3,3.6,9.3,9.3c0,5.7-4.2,9.3-9.4,9.3C407.6,871.3,403.7,867.7,403.7,862z M417.6,862
		c0-3.6-2.3-5.4-4.7-5.4c-2.4,0-4.6,1.7-4.6,5.4c0,3.6,2.1,5.4,4.5,5.4C415.2,867.4,417.6,865.6,417.6,862z"/>
	<path d="M430.9,848.5v4.5h4v3.8h-4v8.7c0,1.2,0.5,1.7,1.9,1.7h2.1v3.9h-2.9c-3.5,0-5.8-1.5-5.8-5.6v-8.7h-2.2V853h2.2v-4.5H430.9z"
		/>
	<path d="M453.8,852.7c4.5,0,7.5,2.4,8.5,6.4h-4.9c-0.5-1.5-1.7-2.5-3.6-2.5c-2.5,0-4.2,1.9-4.2,5.5c0,3.5,1.7,5.4,4.2,5.4
		c1.9,0,3.1-0.8,3.6-2.5h4.9c-1,3.9-4,6.4-8.5,6.4c-5.2,0-8.9-3.7-8.9-9.3C444.9,856.3,448.6,852.7,453.8,852.7z"/>
	<path d="M470.3,871.1h-4.6V853h4.6v2.8c1.1-1.9,3-3.1,5.5-3.1v4.8h-1.2c-2.7,0-4.3,1-4.3,4.5V871.1z"/>
	<path d="M486.8,871.3c-5.3,0-9.1-3.7-9.1-9.3c0-5.7,3.7-9.3,9.1-9.3c5.2,0,8.9,3.6,8.9,8.9c0,0.6,0,1.2-0.1,1.8h-13.2
		c0.2,2.7,2.1,4.2,4.3,4.2c2,0,3-1,3.6-2.2h4.9C494.3,868.7,491.3,871.3,486.8,871.3z M482.4,860.3h8.6c-0.1-2.4-2-3.9-4.3-3.9
		C484.5,856.4,482.7,857.8,482.4,860.3z"/>
	<path d="M506.1,852.7c2.9,0,4.9,1.4,6,2.9V853h4.6v18.1h-4.6v-2.6c-1.1,1.6-3.1,2.9-6,2.9c-4.6,0-8.2-3.8-8.2-9.4
		S501.5,852.7,506.1,852.7z M507.3,856.7c-2.4,0-4.8,1.8-4.8,5.3c0,3.4,2.3,5.4,4.8,5.4c2.5,0,4.8-1.9,4.8-5.3
		S509.8,856.7,507.3,856.7z"/>
	<path d="M526.5,848.5v4.5h4v3.8h-4v8.7c0,1.2,0.5,1.7,1.9,1.7h2.1v3.9h-2.9c-3.5,0-5.8-1.5-5.8-5.6v-8.7h-2.2V853h2.2v-4.5H526.5z"
		/>
	<path d="M541.7,871.3c-5.3,0-9.1-3.7-9.1-9.3c0-5.7,3.7-9.3,9.1-9.3c5.2,0,8.9,3.6,8.9,8.9c0,0.6,0,1.2-0.1,1.8h-13.2
		c0.2,2.7,2.1,4.2,4.3,4.2c2,0,3-1,3.6-2.2h4.9C549.2,868.7,546.2,871.3,541.7,871.3z M537.3,860.3h8.6c-0.1-2.4-2-3.9-4.3-3.9
		C539.4,856.4,537.7,857.8,537.3,860.3z"/>
	<path d="M561.1,852.7c2.4,0,4.7,1.1,5.9,2.8v-8.6h4.6v24.2H567v-2.7c-1.1,1.7-3.1,3-5.9,3c-4.6,0-8.3-3.8-8.3-9.4
		S556.5,852.7,561.1,852.7z M562.2,856.7c-2.4,0-4.8,1.8-4.8,5.3c0,3.4,2.3,5.4,4.8,5.4c2.5,0,4.8-1.9,4.8-5.3
		S564.8,856.7,562.2,856.7z"/>
	<path d="M591,852.7c2.9,0,4.9,1.4,6,2.9V853h4.6v18.1h-4.6v-2.6c-1.1,1.6-3.1,2.9-6,2.9c-4.6,0-8.2-3.8-8.2-9.4
		S586.4,852.7,591,852.7z M592.1,856.7c-2.4,0-4.8,1.8-4.8,5.3c0,3.4,2.3,5.4,4.8,5.4c2.5,0,4.8-1.9,4.8-5.3
		S594.7,856.7,592.1,856.7z"/>
	<path d="M614.7,856.6c-2.5,0-4.1,1.6-4.1,4.5v10H606V853h4.6v2.3c1.2-1.5,3.1-2.5,5.5-2.5c4.2,0,7.2,2.7,7.2,7.7v10.6h-4.6v-10
		C618.7,858.2,617.1,856.6,614.7,856.6z"/>
	<path d="M644.9,853l-11.2,26.6h-4.9l3.9-9l-7.2-17.6h5.1l4.7,12.6L640,853H644.9z"/>
	<path d="M662.2,852.7c2.4,0,4.7,1.1,5.9,2.8v-8.6h4.6v24.2h-4.6v-2.7c-1.1,1.7-3.1,3-5.9,3c-4.6,0-8.3-3.8-8.3-9.4
		S657.6,852.7,662.2,852.7z M663.4,856.7c-2.4,0-4.8,1.8-4.8,5.3c0,3.4,2.3,5.4,4.8,5.4c2.5,0,4.8-1.9,4.8-5.3
		S665.9,856.7,663.4,856.7z"/>
	<path d="M676.8,848.1c0-1.5,1.2-2.7,2.8-2.7c1.6,0,2.8,1.2,2.8,2.7c0,1.5-1.2,2.7-2.8,2.7C677.9,850.8,676.8,849.6,676.8,848.1z
		 M681.8,853v18.1h-4.6V853H681.8z"/>
	<path d="M693.4,852.7c2.9,0,4.9,1.4,6,2.9V853h4.6v18.1h-4.6v-2.6c-1.1,1.6-3.1,2.9-6,2.9c-4.6,0-8.2-3.8-8.2-9.4
		S688.8,852.7,693.4,852.7z M694.6,856.7c-2.4,0-4.8,1.8-4.8,5.3c0,3.4,2.3,5.4,4.8,5.4c2.5,0,4.8-1.9,4.8-5.3
		S697.1,856.7,694.6,856.7z"/>
	<path d="M713,871.1h-4.6V853h4.6v2.8c1.1-1.9,3-3.1,5.5-3.1v4.8h-1.2c-2.7,0-4.3,1-4.3,4.5V871.1z"/>
	<path d="M721.2,848.1c0-1.5,1.2-2.7,2.8-2.7c1.6,0,2.8,1.2,2.8,2.7c0,1.5-1.2,2.7-2.8,2.7C722.3,850.8,721.2,849.6,721.2,848.1z
		 M726.2,853v18.1h-4.6V853H726.2z"/>
	<path d="M738.6,871.3c-5.3,0-9.1-3.7-9.1-9.3c0-5.7,3.7-9.3,9.1-9.3c5.2,0,8.9,3.6,8.9,8.9c0,0.6,0,1.2-0.1,1.8h-13.2
		c0.2,2.7,2.1,4.2,4.3,4.2c2,0,3-1,3.6-2.2h4.9C746.1,868.7,743.1,871.3,738.6,871.3z M734.2,860.3h8.6c-0.1-2.4-2-3.9-4.3-3.9
		C736.3,856.4,734.6,857.8,734.2,860.3z"/>
	<path d="M749.9,865.3h4.6c0.2,1.4,1.4,2.4,3.3,2.4c1.8,0,2.8-0.8,2.8-1.9c0-3.2-10.2-1.2-10.2-7.8c0-3,2.7-5.4,7.1-5.4
		c4.4,0,7,2.4,7.3,6h-4.4c-0.1-1.4-1.2-2.4-3-2.4c-1.7,0-2.6,0.7-2.6,1.7c0,3.3,10,1.2,10.2,7.9c0,3.1-2.7,5.5-7.1,5.5
		C753.3,871.3,750.1,868.7,749.9,865.3z"/>
	<path d="M793.7,853l-11.2,26.6h-4.9l3.9-9l-7.2-17.6h5.1l4.7,12.6l4.7-12.6H793.7z"/>
	<path d="M804.1,871.3c-5.3,0-9.1-3.7-9.1-9.3c0-5.7,3.7-9.3,9.1-9.3c5.2,0,8.9,3.6,8.9,8.9c0,0.6,0,1.2-0.1,1.8h-13.2
		c0.2,2.7,2.1,4.2,4.3,4.2c2,0,3-1,3.6-2.2h4.9C811.6,868.7,808.6,871.3,804.1,871.3z M799.7,860.3h8.6c-0.1-2.4-2-3.9-4.3-3.9
		C801.8,856.4,800,857.8,799.7,860.3z"/>
	<path d="M821.6,848.5v4.5h4v3.8h-4v8.7c0,1.2,0.5,1.7,1.9,1.7h2.1v3.9h-2.9c-3.5,0-5.8-1.5-5.8-5.6v-8.7h-2.2V853h2.2v-4.5H821.6z"
		/>
</g>
</svg>
