<svg width="20" height="20" viewBox="0 0 20 20" fill="none" xmlns="http://www.w3.org/2000/svg">
<path d="M18.6171 1.51244C18.2889 1.16729 17.8949 0.89131 17.4584 0.700752C17.0219 0.510194 16.5516 0.408913 16.0754 0.402875C15.5991 0.396836 15.1265 0.486162 14.6853 0.665591C14.244 0.84502 13.8432 1.11092 13.5063 1.44764L2.25632 12.6976C1.8631 13.0907 1.59004 13.5877 1.46912 14.1304L0.416721 18.8704C0.39476 18.9689 0.398002 19.0714 0.426144 19.1683C0.454287 19.2652 0.506422 19.3535 0.577724 19.4249C0.649027 19.4963 0.737193 19.5486 0.834064 19.5769C0.930935 19.6052 1.03338 19.6086 1.13192 19.5868L5.84432 18.5392C6.40524 18.4144 6.91893 18.1321 7.32512 17.7256L18.5547 6.49604C19.2129 5.83753 19.5878 4.94793 19.5995 4.01693C19.6112 3.08594 19.2586 2.18723 18.6171 1.51244ZM14.3547 2.29604C14.5742 2.07338 14.8356 1.89634 15.1238 1.77514C15.412 1.65394 15.7214 1.59096 16.034 1.58984C16.3467 1.58872 16.6565 1.64948 16.9456 1.76861C17.2346 1.88774 17.4973 2.0629 17.7184 2.28398C17.9395 2.50507 18.1146 2.76772 18.2338 3.05679C18.3529 3.34587 18.4136 3.65566 18.4125 3.96832C18.4114 4.28098 18.3484 4.59033 18.2272 4.87855C18.106 5.16676 17.929 5.42815 17.7063 5.64764L16.9011 6.45284L13.5495 3.10244L14.3547 2.29604ZM12.7011 3.95204L16.0527 7.30244L6.47672 16.8784C6.23186 17.1236 5.92214 17.2939 5.58392 17.3692L1.79192 18.2116L2.64152 14.392C2.71232 14.0716 2.87312 13.7788 3.10472 13.5472L12.7011 3.95204Z" fill="#808080"/>
</svg>
