<svg width="16" height="15" viewBox="0 0 16 15" fill="none" xmlns="http://www.w3.org/2000/svg">
<path d="M14.7307 2.25228C13.9025 1.40681 12.766 0.941162 11.5304 0.941162C10.6068 0.941162 9.761 1.21599 9.01634 1.75793C8.64062 2.03146 8.30016 2.36616 8 2.75675C7.69994 2.36625 7.35938 2.03146 6.98353 1.75793C6.239 1.21599 5.39319 0.941162 4.46959 0.941162C3.234 0.941162 2.09741 1.40681 1.26916 2.25228C0.450812 3.08787 0 4.22943 0 5.46678C0 6.74031 0.504281 7.90613 1.58691 9.13566C2.55541 10.2355 3.94737 11.352 5.55931 12.6449C6.10975 13.0864 6.73366 13.5868 7.38147 14.1199C7.55264 14.261 7.77246 14.3388 8 14.3387C8.22766 14.3387 8.44738 14.261 8.61828 14.1202C9.26609 13.587 9.89038 13.0863 10.441 12.6445C12.0528 11.3519 13.4447 10.2355 14.4132 9.13554C15.4958 7.90616 16 6.74034 16 5.46666C16 4.22943 15.5492 3.08787 14.7307 2.25228Z" fill="white"/>
</svg>
