<svg
	xmlns="http://www.w3.org/2000/svg"
	width="29"
	height="30"
	viewBox="0 0 29 30"
	fill="none"
>
	<path
		d="M21.7084 10.2505H20.5V9.04216C20.5 7.43981 19.8635 5.90308 18.7305 4.77005C17.5974 3.63702 16.0607 3.00049 14.4584 3.00049C12.856 3.00049 11.3193 3.63702 10.1863 4.77005C9.05322 5.90308 8.41669 7.43981 8.41669 9.04216V10.2505H7.20836C6.88789 10.2505 6.58054 10.3778 6.35394 10.6044C6.12733 10.831 6.00002 11.1384 6.00002 11.4588V20.8355C5.99758 21.5105 6.18417 22.1727 6.53866 22.7472C6.89316 23.3217 7.40141 23.7854 8.00586 24.0859L13.9146 27.0342C14.0826 27.1215 14.2691 27.1671 14.4584 27.1671C14.6476 27.1671 14.8341 27.1215 15.0021 27.0342L20.9109 24.0859C21.5153 23.7854 22.0236 23.3217 22.3781 22.7472C22.7325 22.1727 22.9191 21.5105 22.9167 20.8355V11.4588C22.9167 11.1384 22.7894 10.831 22.5628 10.6044C22.3362 10.3778 22.0288 10.2505 21.7084 10.2505ZM15.6667 18.7088C15.6667 19.0293 15.5394 19.3366 15.3128 19.5632C15.0862 19.7898 14.7788 19.9172 14.4584 19.9172C14.1379 19.9172 13.8305 19.7898 13.6039 19.5632C13.3773 19.3366 13.25 19.0293 13.25 18.7088V16.2922C13.25 15.9717 13.3773 15.6643 13.6039 15.4377C13.8305 15.2111 14.1379 15.0838 14.4584 15.0838C14.7788 15.0838 15.0862 15.2111 15.3128 15.4377C15.5394 15.6643 15.6667 15.9717 15.6667 16.2922V18.7088ZM18.0834 10.2505H10.8334V9.04216C10.8334 8.08075 11.2153 7.15871 11.8951 6.47889C12.5749 5.79907 13.4969 5.41716 14.4584 5.41716C15.4198 5.41716 16.3418 5.79907 17.0216 6.47889C17.7014 7.15871 18.0834 8.08075 18.0834 9.04216V10.2505Z"
		fill="#808080"
	/>
</svg>