<svg width="18" height="24" viewBox="0 0 18 24" fill="none" xmlns="http://www.w3.org/2000/svg">
<path d="M16.5 23.25C16.3462 23.2499 16.1962 23.2025 16.0703 23.1143L9 18.1658L1.92975 23.1157C1.81726 23.1944 1.68535 23.2407 1.54839 23.2495C1.41142 23.2584 1.27465 23.2295 1.15297 23.166C1.0313 23.1025 0.929382 23.0068 0.858327 22.8894C0.787272 22.7719 0.749802 22.6373 0.750001 22.5V4.35C0.750993 3.39553 1.1306 2.48043 1.80551 1.80551C2.48043 1.1306 3.39553 0.750993 4.35 0.75H13.65C14.6045 0.750993 15.5196 1.1306 16.1945 1.80551C16.8694 2.48043 17.249 3.39553 17.25 4.35V22.5C17.25 22.6989 17.171 22.8897 17.0303 23.0303C16.8897 23.171 16.6989 23.25 16.5 23.25ZM9 16.5C9.15378 16.5001 9.30381 16.5475 9.42975 16.6357L15.75 21.0592V4.35C15.75 3.79305 15.5288 3.2589 15.1349 2.86508C14.7411 2.47125 14.207 2.25 13.65 2.25H4.35C3.79305 2.25 3.2589 2.47125 2.86508 2.86508C2.47125 3.2589 2.25 3.79305 2.25 4.35V21.0592L8.57025 16.6343C8.69637 16.5465 8.84638 16.4997 9 16.5Z" fill="black"/>
</svg>
