<svg width="40" height="40" viewBox="0 0 40 40" fill="none" xmlns="http://www.w3.org/2000/svg">
<path d="M37.871 19.3203C37.7527 19.1117 37.5938 18.9288 37.4039 18.7823C37.2139 18.6358 36.9967 18.5287 36.7648 18.4672C35.4235 18.1265 34.0306 18.0381 32.657 18.2063C33.5132 14.8531 33.0288 12.2125 32.5398 10.7063C32.3962 10.256 32.09 9.8754 31.6809 9.63878C31.2718 9.40216 30.7892 9.3265 30.3273 9.42657C28.5767 9.8209 26.9272 10.5749 25.4835 11.6406C24.5303 9.42663 23.0303 7.49109 21.1242 6.01563C20.8 5.76853 20.4036 5.6347 19.996 5.6347C19.5884 5.6347 19.1921 5.76853 18.8679 6.01563C16.9618 7.49109 15.4617 9.42663 14.5085 11.6406C13.0647 10.5752 11.4153 9.8212 9.66478 9.42657C9.2029 9.3265 8.7203 9.40216 8.3112 9.63878C7.9021 9.8754 7.59586 10.256 7.45228 10.7063C6.96322 12.2188 6.47885 14.8594 7.3351 18.2063C5.96302 18.0387 4.57176 18.1271 3.23197 18.4672C3.0001 18.5287 2.78282 18.6358 2.59287 18.7823C2.40291 18.9288 2.2441 19.1117 2.12572 19.3203C2.00021 19.5359 1.91897 19.7744 1.88678 20.0217C1.85458 20.2691 1.87207 20.5204 1.93822 20.7609C2.44447 22.6359 4.00072 26.2 8.73822 29.0297C13.4757 31.8594 17.7273 31.875 20.0007 31.875C22.2742 31.875 26.5023 31.875 31.2617 29.0297C36.021 26.1844 37.5554 22.6344 38.0617 20.7609C38.1273 20.5202 38.1443 20.2688 38.1116 20.0214C38.0789 19.774 37.9971 19.5357 37.871 19.3203ZM30.5945 10.6422C30.7548 10.609 30.9217 10.6369 31.0625 10.7204C31.2033 10.804 31.3078 10.9371 31.3554 11.0938C31.9804 13.0469 32.6054 17.0859 29.6726 22.1875C28.0398 25.0297 25.7492 27.2188 23.7179 28.6625C25.3132 26.5625 26.8757 23.3188 26.8757 18.6234C26.8923 16.6587 26.5818 14.705 25.957 12.8422C27.322 11.7764 28.9055 11.0252 30.5945 10.6422ZM8.64603 11.0938C8.69494 10.9384 8.8 10.8068 8.94071 10.7248C9.08142 10.6427 9.24766 10.6161 9.40697 10.65C11.0953 11.0307 12.6787 11.7792 14.0445 12.8422C13.4197 14.705 13.1092 16.6587 13.1257 18.6234C13.1257 23.3188 14.6882 26.5641 16.2835 28.6594C14.2523 27.2156 11.9617 25.0266 10.3288 22.1844C7.39447 17.0781 8.01478 13.0391 8.64603 11.0938ZM9.38353 27.9688C5.02416 25.3641 3.60228 22.1375 3.14916 20.4453C3.1261 20.3637 3.11989 20.2783 3.13091 20.1942C3.14192 20.1101 3.16993 20.0292 3.21322 19.9563C3.24968 19.8903 3.29904 19.8324 3.35837 19.786C3.4177 19.7395 3.48577 19.7055 3.55853 19.6859C4.92459 19.3431 6.34725 19.2899 7.7351 19.5297C8.13452 20.6682 8.63985 21.7668 9.24447 22.8109C11.3195 26.4203 14.3476 29.0094 16.7867 30.4844C14.1648 30.1894 11.6386 29.3273 9.38353 27.9578V27.9688ZM20.0085 30.5219C18.9901 29.8129 18.0895 28.9482 17.3398 27.9594C15.371 25.4031 14.3757 22.2656 14.3757 18.6234C14.3757 11.7094 18.046 8.19376 19.6242 7.0047C19.7326 6.92282 19.8648 6.87852 20.0007 6.87852C20.1366 6.87852 20.2688 6.92282 20.3773 7.0047C21.9554 8.19376 25.6257 11.7094 25.6257 18.6234C25.6257 22.2656 24.6304 25.4031 22.6695 27.9484C21.9197 28.9372 21.0191 29.802 20.0007 30.5109L20.0085 30.5219ZM36.8601 20.4453C36.4038 22.1375 34.9851 25.3641 30.6257 27.9688C28.3703 29.3371 25.8442 30.1982 23.2226 30.4922C25.6617 29.0172 28.6913 26.4297 30.7648 22.8188C31.3694 21.7746 31.8747 20.676 32.2742 19.5375C33.662 19.2969 35.0848 19.3502 36.4507 19.6938C36.5235 19.7133 36.5916 19.7473 36.6509 19.7938C36.7102 19.8402 36.7596 19.8981 36.796 19.9641C36.8758 20.1074 36.896 20.2763 36.8523 20.4344L36.8601 20.4453Z" fill="#808080"/>
</svg>
