<svg width="24" height="24" viewBox="0 0 24 24" fill="none" xmlns="http://www.w3.org/2000/svg">
<path d="M12.0005 19.0781C12.5183 19.0781 12.938 18.6584 12.938 18.1406C12.938 17.6228 12.5183 17.2031 12.0005 17.2031C11.4827 17.2031 11.0627 17.6228 11.0627 18.1406C11.0627 18.6584 11.4827 19.0781 12.0005 19.0781Z" fill="black"/>
<path d="M22.9016 5.93109L18.069 1.09837C17.3607 0.390094 16.419 0 15.4173 0H8.58277C7.58105 0 6.63937 0.390094 5.93109 1.09837L1.09837 5.93109C0.390094 6.63937 0 7.58109 0 8.58277V15.4172C0 16.419 0.390094 17.3606 1.09837 18.0689L5.93109 22.9016C6.63937 23.6099 7.58109 24 8.58277 24H15.4172C16.419 24 17.3606 23.6099 18.069 22.9017L19.5712 21.3994C19.9374 21.0333 19.9373 20.4397 19.5712 20.0736C19.2052 19.7074 18.6116 19.7074 18.2454 20.0736L16.7431 21.5759C16.389 21.93 15.9181 22.125 15.4173 22.125H8.58277C8.08191 22.125 7.61105 21.93 7.25691 21.5759L2.42419 16.7431C2.07005 16.389 1.875 15.9181 1.875 15.4173V8.58277C1.875 8.08191 2.07005 7.61105 2.42419 7.25691L7.25691 2.42419C7.61109 2.07005 8.08191 1.875 8.58277 1.875H15.4172C15.9181 1.875 16.389 2.07005 16.7431 2.42419L21.5758 7.25691C21.93 7.61109 22.125 8.08191 22.125 8.58277V15.4173C22.125 15.9181 21.93 16.389 21.5758 16.7431C21.2097 17.1092 21.2097 17.7028 21.5758 18.069C21.9419 18.4351 22.5355 18.4351 22.9016 18.069C23.6099 17.3607 24 16.419 24 15.4173V8.58277C24 7.58109 23.6099 6.63937 22.9016 5.93109Z" fill="black"/>
<path d="M12.9375 14.8594V5.625C12.9375 5.10722 12.5178 4.6875 12 4.6875C11.4822 4.6875 11.0625 5.10722 11.0625 5.625V14.8594C11.0625 15.3772 11.4822 15.7969 12 15.7969C12.5178 15.7969 12.9375 15.3772 12.9375 14.8594Z" fill="black"/>
</svg>
