<svg width="23" height="23" viewBox="0 0 23 23" fill="none" xmlns="http://www.w3.org/2000/svg">
<path d="M16.1781 7.56478L12.4936 11.2492L16.178 14.9334L14.9352 16.1765L11.2508 12.4921L7.56657 16.1765L6.32345 14.9334L10.0079 11.2492L6.32348 7.56478L7.56657 6.32193L11.2508 10.0063L14.9352 6.32197L16.1781 7.56478ZM22.5 11.25C22.5 14.2549 21.3298 17.0802 19.2049 19.2049C17.0802 21.3298 14.2549 22.5 11.25 22.5C8.24509 22.5 5.41983 21.3298 3.29509 19.2049C1.17018 17.0802 0 14.2549 0 11.25C0 8.24509 1.17018 5.41983 3.29509 3.29509C5.41983 1.17018 8.24509 0 11.25 0C14.2549 0 17.0802 1.17018 19.2049 3.29509C21.3298 5.41983 22.5 8.24509 22.5 11.25ZM20.7422 11.25C20.7422 6.01611 16.4839 1.75781 11.25 1.75781C6.01611 1.75781 1.75781 6.01611 1.75781 11.25C1.75781 16.4839 6.01611 20.7422 11.25 20.7422C16.4839 20.7422 20.7422 16.4839 20.7422 11.25Z" fill="black"/>
</svg>
