<svg width="20" height="20" viewBox="0 0 20 20" fill="none" xmlns="http://www.w3.org/2000/svg">
<path d="M15.184 17.2916H4.81735C4.52836 17.2799 4.24454 17.2112 3.98211 17.0896C3.71968 16.968 3.48381 16.7959 3.28798 16.583C3.09216 16.3701 2.94023 16.1208 2.84088 15.8491C2.74154 15.5775 2.69673 15.2889 2.70902 15V12.5C2.70902 12.3342 2.77487 12.1752 2.89208 12.058C3.00929 11.9408 3.16826 11.875 3.33402 11.875C3.49978 11.875 3.65875 11.9408 3.77596 12.058C3.89317 12.1752 3.95902 12.3342 3.95902 12.5V15C3.9375 15.2474 4.01205 15.4936 4.16721 15.6876C4.32237 15.8815 4.54623 16.0083 4.79235 16.0416H15.184C15.4301 16.0083 15.654 15.8815 15.8092 15.6876C15.9643 15.4936 16.0389 15.2474 16.0174 15V12.5C16.0174 12.3342 16.0832 12.1752 16.2004 12.058C16.3176 11.9408 16.4766 11.875 16.6424 11.875C16.8081 11.875 16.9671 11.9408 17.0843 12.058C17.2015 12.1752 17.2674 12.3342 17.2674 12.5V15C17.2923 15.5795 17.0874 16.1453 16.6973 16.5745C16.3071 17.0037 15.7632 17.2614 15.184 17.2916ZM13.334 7.29165C13.2519 7.29203 13.1705 7.27602 13.0947 7.24453C13.0188 7.21305 12.9501 7.16674 12.8924 7.10831L10.0007 4.21665L7.10902 7.10831C6.99054 7.21871 6.83384 7.27882 6.67192 7.27596C6.51 7.2731 6.35551 7.20751 6.241 7.093C6.12649 6.97849 6.0609 6.824 6.05804 6.66208C6.05518 6.50016 6.11529 6.34346 6.22569 6.22498L9.55902 2.89165C9.67621 2.7746 9.83506 2.70886 10.0007 2.70886C10.1663 2.70886 10.3252 2.7746 10.4424 2.89165L13.7757 6.22498C13.8927 6.34217 13.9585 6.50102 13.9585 6.66665C13.9585 6.83227 13.8927 6.99112 13.7757 7.10831C13.718 7.16674 13.6492 7.21305 13.5733 7.24453C13.4975 7.27602 13.4161 7.29203 13.334 7.29165Z" fill="black"/>
<path d="M10 13.125C9.83491 13.1228 9.67719 13.0563 9.56045 12.9395C9.4437 12.8228 9.37716 12.6651 9.375 12.5V3.33331C9.375 3.16755 9.44085 3.00858 9.55806 2.89137C9.67527 2.77416 9.83424 2.70831 10 2.70831C10.1658 2.70831 10.3247 2.77416 10.4419 2.89137C10.5592 3.00858 10.625 3.16755 10.625 3.33331V12.5C10.6228 12.6651 10.5563 12.8228 10.4396 12.9395C10.3228 13.0563 10.1651 13.1228 10 13.125Z" fill="black"/>
</svg>
