<svg width="38" height="36" viewBox="0 0 38 36" fill="none" xmlns="http://www.w3.org/2000/svg">
<g clip-path="url(#clip0_8224_17013)">
<path d="M28.5 25.9543H24.5417C24.3317 25.9543 24.1303 25.8705 23.9819 25.7213C23.8334 25.5721 23.75 25.3698 23.75 25.1588C23.75 24.9479 23.8334 24.7455 23.9819 24.5964C24.1303 24.4472 24.3317 24.3634 24.5417 24.3634H28.5C32.8652 24.3634 36.4167 20.795 36.4167 16.4089C36.4192 14.3835 35.65 12.4339 34.2671 10.9603C32.8841 9.48675 30.9922 8.60093 28.9797 8.48469C28.8366 8.47686 28.6982 8.43009 28.5794 8.3494C28.4606 8.2687 28.3658 8.1571 28.3053 8.02651C27.4734 6.25284 26.1571 4.75319 24.5096 3.70231C22.8622 2.65143 20.9514 2.09258 19 2.09089C13.9096 2.09089 9.53642 5.90108 8.82708 10.9522C8.80038 11.1419 8.70639 11.3156 8.56239 11.4413C8.41839 11.567 8.23407 11.6362 8.04333 11.6362C4.42383 11.6362 1.58333 14.4903 1.58333 17.9998C1.58333 21.5093 4.42383 24.3634 7.91667 24.3634H13.4583C13.6683 24.3634 13.8697 24.4472 14.0181 24.5964C14.1666 24.7455 14.25 24.9479 14.25 25.1588C14.25 25.3698 14.1666 25.5721 14.0181 25.7213C13.8697 25.8705 13.6683 25.9543 13.4583 25.9543H7.91667C3.55142 25.9543 0 22.3859 0 17.9998C0.00230255 15.9856 0.764112 14.0471 2.132 12.5746C3.4999 11.1022 5.37226 10.2053 7.372 10.0644C8.46767 4.56632 13.3522 0.5 19 0.5C21.1734 0.502368 23.3046 1.10337 25.1618 2.23766C27.019 3.37195 28.5312 4.99611 29.5339 6.93357C31.8603 7.18417 34.0122 8.29069 35.5753 10.0401C37.1383 11.7895 38.002 14.058 38 16.4089C38 21.6732 33.7393 25.9543 28.5 25.9543Z" fill="#68BB59"/>
<path d="M19.0007 30.7269C18.7907 30.7269 18.5893 30.6431 18.4409 30.494C18.2924 30.3448 18.209 30.1425 18.209 29.9315V17.6021C18.209 17.3911 18.2924 17.1888 18.4409 17.0396C18.5893 16.8904 18.7907 16.8066 19.0007 16.8066C19.2106 16.8066 19.412 16.8904 19.5604 17.0396C19.7089 17.1888 19.7923 17.3911 19.7923 17.6021V29.9315C19.7923 30.1425 19.7089 30.3448 19.5604 30.494C19.412 30.6431 19.2106 30.7269 19.0007 30.7269Z" fill="#68BB59"/>
<path d="M23.2754 22.1049C23.0654 22.1049 22.8638 22.0214 22.7149 21.8726L19.3171 18.457L15.9192 21.871C15.7699 22.0159 15.5699 22.0961 15.3624 22.0943C15.1548 22.0925 14.9562 22.0088 14.8095 21.8613C14.6627 21.7138 14.5794 21.5143 14.5776 21.3058C14.5758 21.0972 14.6556 20.8963 14.7998 20.7463L18.7581 16.769C18.9066 16.6199 19.1079 16.5361 19.3178 16.5361C19.5278 16.5361 19.7291 16.6199 19.8776 16.769L23.8359 20.7463C23.9469 20.8575 24.0225 20.9994 24.0532 21.1539C24.0838 21.3083 24.0682 21.4685 24.0081 21.614C23.9481 21.7596 23.8464 21.8839 23.716 21.9713C23.5855 22.0587 23.4322 22.1052 23.2754 22.1049ZM24.8587 35.6275H13.7754C12.466 35.6275 11.4004 34.5568 11.4004 33.2411V30.0593C11.4004 29.8484 11.4838 29.646 11.6323 29.4969C11.7807 29.3477 11.9821 29.2639 12.1921 29.2639C12.402 29.2639 12.6034 29.3477 12.7518 29.4969C12.9003 29.646 12.9837 29.8484 12.9837 30.0593V33.2411C12.9837 33.4521 13.0671 33.6544 13.2156 33.8036C13.3641 33.9528 13.5654 34.0366 13.7754 34.0366H24.8587C25.0687 34.0366 25.27 33.9528 25.4185 33.8036C25.567 33.6544 25.6504 33.4521 25.6504 33.2411V30.0593C25.6504 29.8484 25.7338 29.646 25.8823 29.4969C26.0307 29.3477 26.2321 29.2639 26.4421 29.2639C26.652 29.2639 26.8534 29.3477 27.0018 29.4969C27.1503 29.646 27.2337 29.8484 27.2337 30.0593V33.2411C27.2337 34.5568 26.1681 35.6275 24.8587 35.6275Z" fill="#68BB59"/>
</g>
<defs>
<clipPath id="clip0_8224_17013">
<rect width="38" height="35" fill="white" transform="translate(0 0.5)"/>
</clipPath>
</defs>
</svg>
