<svg
	xmlns="http://www.w3.org/2000/svg"
	width="55"
	height="55"
	viewBox="0 0 55 55"
	fill="none"
>
	<g clipPath="url(#clip0_3491_8379)">
		<g mask="url(#mask0_3491_8379)">
		<path
			d="M35.3306 23.864C35.2916 22.926 35.1483 22.2812 34.943 21.7223C34.7313 21.1292 34.4056 20.5982 33.9789 20.1567C33.562 19.7084 33.0571 19.36 32.5034 19.1393C31.9726 18.9221 31.3667 18.7703 30.4809 18.729C29.5883 18.6841 29.305 18.6738 27.0413 18.6738C24.7776 18.6738 24.4943 18.6841 23.6051 18.7255C22.7192 18.7669 22.1101 18.9187 21.5825 19.1358C21.0221 19.36 20.5206 19.7048 20.1037 20.1567C19.6803 20.5981 19.3514 21.1327 19.1428 21.7189C18.9376 22.2812 18.7944 22.9225 18.7553 23.8605C18.7129 24.8056 18.7031 25.1056 18.7031 27.5024C18.7031 29.8992 18.7129 30.1993 18.752 31.1408C18.7911 32.0788 18.9344 32.7236 19.1397 33.2825C19.3514 33.8756 19.6803 34.4066 20.1037 34.8481C20.5206 35.2964 21.0255 35.6448 21.5792 35.8655C22.1101 36.0827 22.7158 36.2345 23.6019 36.2758C24.491 36.3173 24.7745 36.3275 27.0381 36.3275C29.3018 36.3275 29.5851 36.3173 30.4744 36.2758C31.3603 36.2345 31.9693 36.0828 32.4969 35.8655C33.0511 35.6386 33.5543 35.2917 33.9745 34.8469C34.3946 34.4021 34.7223 33.8692 34.9366 33.2825C35.1417 32.7203 35.2851 32.0788 35.3241 31.1408C35.3632 30.1993 35.373 29.8992 35.373 27.5024C35.373 25.1056 35.3697 24.8055 35.3306 23.864ZM33.8292 31.0718C33.7933 31.934 33.6565 32.3995 33.5425 32.7099C33.2623 33.479 32.6859 34.0894 31.9595 34.3861C31.6664 34.5068 31.2235 34.6516 30.4124 34.6894C29.533 34.7309 29.2692 34.7411 27.0446 34.7411C24.82 34.7411 24.5529 34.7309 23.6767 34.6894C22.8624 34.6516 22.4227 34.5068 22.1296 34.3861C21.7681 34.2446 21.4391 34.0204 21.172 33.7273C20.8952 33.441 20.6835 33.0962 20.5499 32.7134C20.4359 32.4031 20.2991 31.934 20.2634 31.0753C20.2242 30.1442 20.2145 29.8648 20.2145 27.5093C20.2145 25.1538 20.2242 24.871 20.2634 23.9434C20.2991 23.0812 20.4359 22.6156 20.5499 22.3053C20.6835 21.9224 20.8952 21.5741 21.1754 21.2912C21.4456 20.9981 21.7713 20.7739 22.1329 20.6326C22.426 20.5119 22.869 20.3671 23.68 20.3291C24.5594 20.2877 24.8233 20.2774 27.0478 20.2774C29.2757 20.2774 29.5395 20.2877 30.4157 20.3291C31.23 20.3671 31.6697 20.5119 31.9628 20.6326C32.3243 20.7739 32.6533 20.9981 32.9204 21.2912C33.1972 21.5775 33.4089 21.9224 33.5425 22.3053C33.6565 22.6156 33.7933 23.0846 33.8291 23.9434C33.8682 24.8745 33.878 25.1538 33.878 27.5093C33.878 29.8648 33.8683 30.1406 33.8292 31.0718Z"
			fill="#68BB59"
		/>
		<path
			d="M27.0428 22.9665C24.6783 22.9665 22.7598 24.9977 22.7598 27.5016C22.7598 30.0054 24.6783 32.0366 27.0428 32.0366C29.4075 32.0366 31.3259 30.0054 31.3259 27.5016C31.3259 24.9977 29.4075 22.9665 27.0428 22.9665ZM27.0428 30.4433C25.5088 30.4433 24.2645 29.126 24.2645 27.5016C24.2645 25.8772 25.5088 24.5598 27.0428 24.5598C28.577 24.5598 29.8212 25.8772 29.8212 27.5016C29.8212 29.126 28.5769 30.4433 27.0428 30.4433ZM32.4953 22.7872C32.4953 23.3719 32.0475 23.8459 31.4952 23.8459C30.9431 23.8459 30.4953 23.3719 30.4953 22.7872C30.4953 22.2024 30.9431 21.7285 31.4953 21.7285C32.0475 21.7285 32.4953 22.2024 32.4953 22.7872Z"
			fill="#68BB59"
		/>
		</g>
		<path
		d="M27.5 54C42.1355 54 54 42.1355 54 27.5C54 12.8645 42.1355 1 27.5 1C12.8645 1 1 12.8645 1 27.5C1 42.1355 12.8645 54 27.5 54Z"
		stroke="#68BB59"
		strokeWidth="2"
		/>
	</g>
	<defs>
		<clipPath id="clip0_3491_8379">
		<rect width="55" height="55" fill="white" />
		</clipPath>
	</defs>
</svg>