<svg width="53" height="53" viewBox="0 0 53 53" fill="none" xmlns="http://www.w3.org/2000/svg">
<path fill-rule="evenodd" clip-rule="evenodd" d="M26.4998 52.9214C41.092 52.9214 52.9214 41.092 52.9214 26.4998C52.9214 11.9075 41.092 0.078125 26.4998 0.078125C11.9075 0.078125 0.078125 11.9075 0.078125 26.4998C0.078125 41.092 11.9075 52.9214 26.4998 52.9214ZM50.9214 26.4998C50.9214 39.9875 39.9875 50.9214 26.4998 50.9214C13.0121 50.9214 2.07812 39.9875 2.07812 26.4998C2.07812 13.0121 13.0121 2.07812 26.4998 2.07812C39.9875 2.07812 50.9214 13.0121 50.9214 26.4998ZM35.0761 17.2948H32.0086L26.9561 23.086L22.5873 17.2948H16.2586L23.8198 27.2073L16.6536 35.4198H19.7223L25.2536 29.0823L30.0873 35.4198H36.2586L28.3761 24.9723L35.0761 17.2948ZM32.6336 33.5798H30.9336L19.8398 19.0385H21.6623L32.6336 33.5798Z" fill="#68BB59"/>
</svg>
