<svg
	xmlns="http://www.w3.org/2000/svg"
	width="51"
	height="51"
	viewBox="0 0 51 51"
	fill="none"
>
	<g clipPath="url(#clip0_3491_8364)">
		<path
		d="M25.5 50C39.031 50 50 39.031 50 25.5C50 11.969 39.031 1 25.5 1C11.969 1 1 11.969 1 25.5C1 39.031 11.969 50 25.5 50Z"
		stroke="#68BB59"
		strokeWidth="2"
		/>
		<path
		d="M36.3075 19.6408C36.0466 18.6708 35.2819 17.9062 34.312 17.645C32.5403 17.1602 25.4532 17.1602 25.4532 17.1602C25.4532 17.1602 18.3663 17.1602 16.5946 17.6266C15.6434 17.8875 14.86 18.671 14.5991 19.6408C14.1328 21.4124 14.1328 25.0865 14.1328 25.0865C14.1328 25.0865 14.1328 28.7791 14.5991 30.5322C14.8602 31.502 15.6247 32.2666 16.5947 32.5278C18.3849 33.0127 25.4534 33.0127 25.4534 33.0127C25.4534 33.0127 32.5403 33.0127 34.312 32.5463C35.282 32.2853 36.0466 31.5207 36.3078 30.5508C36.7739 28.7791 36.7739 25.1051 36.7739 25.1051C36.7739 25.1051 36.7926 21.4123 36.3075 19.6408ZM23.1967 28.4807V21.6922L29.09 25.0864L23.1967 28.4807Z"
		fill="#68BB59"
		/>
	</g>
	<defs>
		<clipPath id="clip0_3491_8364">
		<rect width="51" height="51" fill="white" />
		</clipPath>
	</defs>
</svg>
