<svg
	xmlns="http://www.w3.org/2000/svg"
	width="51"
	height="51"
	viewBox="0 0 51 51"
	fill="none"
>
	<g clipPath="url(#clip0_3491_8367)">
		<path
		d="M50.5 25.5C50.5 39.3071 39.3071 50.5 25.5 50.5C11.6929 50.5 0.5 39.3071 0.5 25.5C0.5 11.6929 11.6929 0.5 25.5 0.5C39.3071 0.5 50.5 11.6929 50.5 25.5Z"
		fill="#318C21"
		stroke="#318C21"
		/>
		<path
		d="M35.9662 19.4572C35.7077 18.4964 34.9501 17.7389 33.9894 17.4802C32.2343 17 25.2139 17 25.2139 17C25.2139 17 18.1937 17 16.4386 17.462C15.4964 17.7205 14.7203 18.4965 14.4619 19.4572C14 21.2121 14 24.8517 14 24.8517C14 24.8517 14 28.5096 14.4619 30.2462C14.7206 31.2069 15.4779 31.9643 16.4387 32.223C18.2121 32.7034 25.2141 32.7034 25.2141 32.7034C25.2141 32.7034 32.2343 32.7034 33.9894 32.2414C34.9503 31.9828 35.7077 31.2254 35.9664 30.2647C36.4282 28.5096 36.4281 24.8702 36.4281 24.8702C36.4281 24.8702 36.4466 21.2121 35.9662 19.4572ZM22.9787 28.214V21.4893L28.8165 24.8517L22.9787 28.214Z"
		fill="white"
		/>
	</g>
	<defs>
		<clipPath id="clip0_3491_8367">
		<rect width="51" height="51" fill="white" />
		</clipPath>
	</defs>
</svg>