<svg
	xmlns="http://www.w3.org/2000/svg"
	width="51"
	height="51"
	viewBox="0 0 51 51"
	fill="none"
>
	<g clipPath="url(#clip0_3491_8337)">
		<path
		d="M25.5 50.5C39.3071 50.5 50.5 39.3071 50.5 25.5C50.5 11.6929 39.3071 0.5 25.5 0.5C11.6929 0.5 0.5 11.6929 0.5 25.5C0.5 39.3071 11.6929 50.5 25.5 50.5Z"
		fill="#318C21"
		stroke="#318C21"
		/>
		<g mask="url(#mask0_3491_8337)">
		<path
			d="M26.3936 34V26.2461H29.1482L29.5615 23.2233H26.3936V21.2937C26.3936 20.4189 26.6498 19.8226 27.9796 19.8226L29.673 19.822V17.1183C29.3802 17.0824 28.3749 17 27.2049 17C24.7618 17 23.0892 18.4084 23.0892 20.9944V23.2233H20.3262V26.2461H23.0892V34H26.3936Z"
			fill="white"
		/>
		</g>
	</g>
	<defs>
		<clipPath id="clip0_3491_8337">
		<rect width="51" height="51" fill="white" />
		</clipPath>
	</defs>
</svg>