<svg
	xmlns="http://www.w3.org/2000/svg"
	width="55"
	height="55"
	viewBox="0 0 55 55"
	fill="none"
>
	<g clipPath="url(#clip0_3491_8330)">
		<path
		d="M27.5 54C42.1355 54 54 42.1355 54 27.5C54 12.8645 42.1355 1 27.5 1C12.8645 1 1 12.8645 1 27.5C1 42.1355 12.8645 54 27.5 54Z"
		stroke="#68BB59"
		strokeWidth="2"
		/>
		<g mask="url(#mask0_3491_8330)">
		<path
			d="M28.3936 36V28.2461H31.1482L31.5615 25.2233H28.3936V23.2937C28.3936 22.4189 28.6498 21.8226 29.9796 21.8226L31.673 21.822V19.1183C31.3802 19.0824 30.3749 19 29.2049 19C26.7618 19 25.0892 20.4084 25.0892 22.9944V25.2233H22.3262V28.2461H25.0892V36H28.3936Z"
			fill="#68BB59"
		/>
		</g>
	</g>
	<defs>
		<clipPath id="clip0_3491_8330">
		<rect width="55" height="55" fill="white" />
		</clipPath>
	</defs>
</svg>