<svg
                xmlns="http://www.w3.org/2000/svg"
                width="25"
                height="24"
                viewBox="0 0 25 24"
                fill="none"
              >
                <path
                  d="M20.1663 10.5606L16.9147 8.68262L13.5859 12.0114L16.9145 15.34L20.1773 13.4557C20.6861 13.1466 20.9897 12.6066 20.9897 12.0114C20.9897 11.4162 20.6859 10.8762 20.1663 10.5606Z"
                  fill="#FFCE00"
                />
                <path
                  d="M13.5856 12.0111L4.5186 2.87891C4.35792 3.03809 4.23039 3.22754 4.14339 3.43632C4.05638 3.6451 4.01163 3.86905 4.01172 4.09523V19.8992C4.01172 20.3723 4.20324 20.8002 4.5186 21.1158L13.5856 12.0111Z"
                  fill="url(#paint0_linear_1312_118)"
                />
                <path
                  d="M13.5865 12.0112L16.9153 8.68244L16.9206 8.67716L12.4604 6.10916L6.58089 2.65364C6.05145 2.327 5.40945 2.31572 4.86873 2.6198C4.74489 2.69852 4.63209 2.77748 4.51953 2.87876L13.5865 12.0112Z"
                  fill="#00F076"
                />
                <path
                  d="M4.51953 21.1156C4.63209 21.2169 4.74489 21.2959 4.86873 21.3746C5.13897 21.521 5.42073 21.6 5.70225 21.6C6.00633 21.6 6.29913 21.51 6.56961 21.3523L12.4602 17.9133L16.9203 15.3453L16.9151 15.34L13.5865 12.0112L4.51953 21.1156Z"
                  fill="#F63448"
                />
                <defs>
                  <linearGradient
                    id="paint0_linear_1312_118"
                    x1="-0.0404412"
                    y1="16.5565"
                    x2="9.07788"
                    y2="7.43795"
                    gradientUnits="userSpaceOnUse"
                  >
                    <stop stopColor="#00E2FF" />
                    <stop offset="1" stopColor="#00C5FF" />
                  </linearGradient>
                </defs>
              </svg>