<svg
	xmlns="http://www.w3.org/2000/svg"
	width="51"
	height="51"
	viewBox="0 0 51 51"
	fill="none"
>
	<g clipPath="url(#clip0_3491_8370)">
		<path
		d="M25.5 50.5C39.3071 50.5 50.5 39.3071 50.5 25.5C50.5 11.6929 39.3071 0.5 25.5 0.5C11.6929 0.5 0.5 11.6929 0.5 25.5C0.5 39.3071 11.6929 50.5 25.5 50.5Z"
		fill="#318C21"
		stroke="#318C21"
		/>
		<g mask="url(#mask0_3491_8370)">
		<path
			d="M33.0339 16.5156H16.5176V34.0034H33.0339V16.5156Z"
			fill="white"
		/>
		<path
			d="M33.018 21.6571C32.9793 20.7279 32.8374 20.0891 32.634 19.5355C32.4243 18.948 32.1017 18.4219 31.679 17.9846C31.266 17.5405 30.7659 17.1954 30.2174 16.9768C29.6916 16.7616 29.0914 16.6113 28.2138 16.5704C27.3297 16.5259 27.049 16.5156 24.8066 16.5156C22.5642 16.5156 22.2836 16.5259 21.4027 16.5669C20.5251 16.6079 19.9218 16.7582 19.3992 16.9733C18.8441 17.1954 18.3473 17.537 17.9343 17.9846C17.5148 18.4219 17.189 18.9514 16.9824 19.5322C16.7792 20.0891 16.6372 20.7245 16.5986 21.6536C16.5566 22.5898 16.5469 22.8869 16.5469 25.2612C16.5469 27.6355 16.5566 27.9327 16.5953 28.8654C16.634 29.7946 16.776 30.4334 16.9793 30.9869C17.189 31.5745 17.5148 32.1005 17.9343 32.5379C18.3473 32.982 18.8474 33.3271 19.3959 33.5457C19.9218 33.7609 20.5218 33.9112 21.3996 33.9521C22.2803 33.9933 22.5611 34.0034 24.8035 34.0034C27.0459 34.0034 27.3265 33.9933 28.2074 33.9521C29.085 33.9112 29.6883 33.7609 30.2109 33.5457C30.7599 33.3209 31.2584 32.9772 31.6746 32.5366C32.0908 32.096 32.4154 31.5682 32.6277 30.9869C32.8308 30.4301 32.9729 29.7946 33.0115 28.8654C33.0503 27.9327 33.0599 27.6355 33.0599 25.2612C33.0599 22.8869 33.0567 22.5897 33.018 21.6571ZM31.5307 28.7971C31.4951 29.6511 31.3596 30.1123 31.2467 30.4198C30.9692 31.1816 30.3981 31.7863 29.6786 32.0801C29.3882 32.1997 28.9495 32.3432 28.146 32.3806C27.2749 32.4218 27.0136 32.4319 24.8099 32.4319C22.6062 32.4319 22.3417 32.4218 21.4737 32.3806C20.667 32.3432 20.2315 32.1997 19.9411 32.0801C19.583 31.94 19.2571 31.718 18.9926 31.4276C18.7183 31.144 18.5086 30.8024 18.3762 30.4233C18.2633 30.1158 18.1278 29.6511 18.0924 28.8005C18.0536 27.8782 18.0441 27.6014 18.0441 25.268C18.0441 22.9347 18.0536 22.6546 18.0924 21.7357C18.1278 20.8816 18.2633 20.4204 18.3762 20.113C18.5086 19.7337 18.7183 19.3887 18.9959 19.1085C19.2635 18.8181 19.5862 18.5961 19.9444 18.4561C20.2348 18.3365 20.6736 18.193 21.4769 18.1554C22.3481 18.1144 22.6095 18.1042 24.813 18.1042C27.02 18.1042 27.2813 18.1144 28.1493 18.1554C28.9559 18.1931 29.3915 18.3365 29.6819 18.4561C30.0399 18.5961 30.3658 18.8181 30.6304 19.1085C30.9046 19.3921 31.1144 19.7337 31.2467 20.113C31.3596 20.4204 31.4951 20.8849 31.5306 21.7357C31.5693 22.6581 31.579 22.9347 31.579 25.268C31.579 27.6014 31.5694 27.8747 31.5307 28.7971Z"
			fill="#318C21"
		/>
		<path
			d="M24.8073 20.7693C22.4649 20.7693 20.5645 22.7814 20.5645 25.2617C20.5645 27.742 22.4649 29.7541 24.8073 29.7541C27.1497 29.7541 29.05 27.742 29.05 25.2617C29.05 22.7814 27.1497 20.7693 24.8073 20.7693ZM24.8073 28.1758C23.2877 28.1758 22.055 26.8708 22.055 25.2617C22.055 23.6526 23.2877 22.3476 24.8072 22.3476C26.3269 22.3476 27.5594 23.6526 27.5594 25.2617C27.5594 26.8708 26.3269 28.1758 24.8073 28.1758ZM30.2084 20.5917C30.2084 21.1709 29.7649 21.6405 29.2178 21.6405C28.6708 21.6405 28.2273 21.1709 28.2273 20.5917C28.2273 20.0124 28.6708 19.543 29.2178 19.543C29.7649 19.543 30.2084 20.0124 30.2084 20.5917Z"
			fill="#318C21"
		/>
		</g>
	</g>
	<defs>
		<clipPath id="clip0_3491_8370">
		<rect width="51" height="51" fill="white" />
		</clipPath>
	</defs>
</svg>