<svg width="55" height="55" viewBox="0 0 55 55" fill="none" xmlns="http://www.w3.org/2000/svg">
<circle cx="27.5" cy="27.5" r="26.5" stroke="#68BB59" stroke-width="2"/>
<g clip-path="url(#clip0_1003_907)">
<path d="M26.6975 30.998C26.2083 33.5632 25.6107 36.0228 23.8404 37.3076C23.2941 33.43 24.6429 30.5179 25.2689 27.4265C24.2011 25.6285 25.3974 22.0108 27.65 22.9025C30.4215 23.9987 25.25 29.5858 28.7218 30.2835C32.3468 31.0118 33.8263 23.994 31.5789 21.712C28.3309 18.4164 22.1247 21.6366 22.8879 26.355C23.0736 27.5084 24.2655 27.8585 23.3644 29.4501C21.2854 28.9893 20.6652 27.35 20.745 25.1645C20.8734 21.5868 23.9594 19.082 27.0549 18.7355C30.9692 18.2973 34.643 20.1724 35.1504 23.855C35.7218 28.011 33.3834 32.5121 29.1979 32.1885C28.063 32.1004 27.587 31.5381 26.6975 30.998Z" fill="#68BB59"/>
</g>
<defs>
<clipPath id="clip0_1003_907">
<rect width="18.6346" height="18.6346" fill="white" transform="translate(18.6719 18.6729)"/>
</clipPath>
</defs>
</svg>
