<svg width="51" height="52" viewBox="0 0 51 52" fill="none" xmlns="http://www.w3.org/2000/svg">
<path d="M50.5 26.0488C50.5 39.8559 39.3071 51.0488 25.5 51.0488C11.6929 51.0488 0.5 39.8559 0.5 26.0488C0.5 12.2417 11.6929 1.04883 25.5 1.04883C39.3071 1.04883 50.5 12.2417 50.5 26.0488Z" fill="#318C21" stroke="#318C21"/>
<g clip-path="url(#clip0_1003_909)">
<path d="M24.4656 29.2737C23.9811 31.8147 23.3891 34.2512 21.6355 35.5239C21.0943 31.6828 22.4304 28.7981 23.0506 25.7358C21.9927 23.9547 23.1778 20.371 25.4092 21.2543C28.1546 22.3402 23.0318 27.8748 26.4709 28.5659C30.0619 29.2874 31.5274 22.3356 29.3011 20.075C26.0837 16.8104 19.9359 20.0004 20.6919 24.6743C20.8758 25.8169 22.0566 26.1637 21.1639 27.7403C19.1045 27.2839 18.4902 25.66 18.5691 23.495C18.6964 19.951 21.7533 17.4698 24.8197 17.1266C28.6972 16.6925 32.3365 18.5499 32.8391 22.1978C33.4051 26.3148 31.0887 30.7735 26.9425 30.453C25.8184 30.3657 25.3468 29.8087 24.4656 29.2737Z" fill="white"/>
</g>
<defs>
<clipPath id="clip0_1003_909">
<rect width="18.4593" height="18.4593" fill="white" transform="translate(16.5156 17.0645)"/>
</clipPath>
</defs>
</svg>
