<svg
	xmlns="http://www.w3.org/2000/svg"
	width="51"
	height="51"
	viewBox="0 0 51 51"
	fill="none"
>
	<g clipPath="url(#clip0_3491_8351)">
		<path
		d="M50.5 25.5C50.5 39.3071 39.3071 50.5 25.5 50.5C11.6929 50.5 0.5 39.3071 0.5 25.5C0.5 11.6929 11.6929 0.5 25.5 0.5C39.3071 0.5 50.5 11.6929 50.5 25.5Z"
		fill="#318C21"
		stroke="#318C21"
		/>
		<g mask="url(#mask0_3491_8351)">
		<path
			d="M24.4676 28.7248C23.983 31.2659 23.391 33.7024 21.6374 34.9751C21.0962 31.1339 22.4324 28.2493 23.0525 25.1869C21.9947 23.4059 23.1798 19.8222 25.4111 20.7055C28.1566 21.7914 23.0338 27.326 26.4729 28.0171C30.0638 28.7385 31.5294 21.7867 29.3031 19.5262C26.0857 16.2615 19.9378 19.4515 20.6939 24.1255C20.8778 25.268 22.0585 25.6149 21.1658 27.1915C19.1065 26.7351 18.4921 25.1112 18.5711 22.9462C18.6983 19.4022 21.7553 16.921 24.8216 16.5777C28.6992 16.1436 32.3384 18.0011 32.841 21.649C33.407 25.7659 31.0906 30.2247 26.9445 29.9042C25.8203 29.8169 25.3487 29.2599 24.4676 28.7248Z"
			fill="white"
		/>
		</g>
	</g>
	<defs>
		<clipPath id="clip0_3491_8351">
		<rect width="51" height="51" fill="white" />
		</clipPath>
	</defs>
</svg>