<svg
	xmlns="http://www.w3.org/2000/svg"
	width="55"
	height="55"
	viewBox="0 0 55 55"
	fill="none"
>
	<g clipPath="url(#clip0_3491_8344)">
		<path
		d="M27.5 54C42.1355 54 54 42.1355 54 27.5C54 12.8645 42.1355 1 27.5 1C12.8645 1 1 12.8645 1 27.5C1 42.1355 12.8645 54 27.5 54Z"
		stroke="#68BB59"
		strokeWidth="2"
		/>
		<g mask="url(#mask0_3491_8344)">
		<path
			d="M26.6994 30.999C26.2103 33.5642 25.6127 36.0238 23.8424 37.3086C23.2961 33.431 24.6449 30.5189 25.2709 27.4275C24.203 25.6295 25.3994 22.0118 27.6519 22.9035C30.4234 23.9997 25.252 29.5868 28.7238 30.2845C32.3488 31.0128 33.8283 23.995 31.5808 21.713C28.3329 18.4174 22.1267 21.6376 22.8899 26.356C23.0755 27.5094 24.2675 27.8595 23.3663 29.4511C21.2874 28.9903 20.6672 27.351 20.7469 25.1655C20.8754 21.5878 23.9614 19.083 27.0568 18.7365C30.9712 18.2983 34.645 20.1734 35.1523 23.856C35.7238 28.012 33.3853 32.5131 29.1998 32.1895C28.065 32.1014 27.5889 31.5391 26.6994 30.999Z"
			fill="#68BB59"
		/>
		</g>
	</g>
	<defs>
		<clipPath id="clip0_3491_8344">
		<rect width="55" height="55" fill="white" />
		</clipPath>
</defs>
</svg>