<svg
	xmlns="http://www.w3.org/2000/svg"
	width="51"
	height="52"
	viewBox="0 0 51 52"
	fill="none"
>
	<g clipPath="url(#clip0_3491_8361)">
		<path
		d="M25.5 51.0488C39.3071 51.0488 50.5 39.8559 50.5 26.0488C50.5 12.2417 39.3071 1.04883 25.5 1.04883C11.6929 1.04883 0.5 12.2417 0.5 26.0488C0.5 39.8559 11.6929 51.0488 25.5 51.0488Z"
		fill="#318C21"
		stroke="#318C21"
		/>
		<path
		d="M34.5638 19.2999C33.8643 19.6157 33.1415 19.8343 32.372 19.9314C33.1648 19.4456 33.771 18.6684 34.0508 17.7212C33.3047 18.1826 32.4886 18.4984 31.6259 18.6927C30.9264 17.9155 29.9237 17.4297 28.8278 17.4297C26.706 17.4297 25.0038 19.227 25.0038 21.413C25.0038 21.7288 25.0271 22.0202 25.0971 22.3117C21.926 22.166 19.1279 20.5629 17.2392 18.1583C15.8868 20.6844 17.4024 22.7732 18.4051 23.4776C17.7988 23.4776 17.1926 23.2832 16.6796 22.9918C16.6796 24.9592 18.0087 26.5865 19.7342 26.9508C19.3611 27.0723 18.5217 27.1451 18.0087 27.0237C18.4984 28.6024 19.9207 29.7683 21.5762 29.7926C20.2704 30.8613 18.3584 31.7114 15.9102 31.4442C17.6123 32.5858 19.6176 33.2416 21.7861 33.2416C28.8278 33.2416 32.6518 27.1694 32.6518 21.9231C32.6518 21.7531 32.6518 21.583 32.6285 21.413C33.4213 20.8058 34.0742 20.1014 34.5638 19.2999Z"
		fill="white"
		/>
	</g>
	<defs>
		<clipPath id="clip0_3491_8361">
		<rect width="51" height="52" fill="white" />
		</clipPath>
	</defs>
</svg>