<svg
	xmlns="http://www.w3.org/2000/svg"
	width="55"
	height="55"
	viewBox="0 0 55 55"
	fill="none"
>
	<g clipPath="url(#clip0_3491_8358)">
		<path
		d="M36.8913 20.929C36.1852 21.2477 35.4555 21.4684 34.6787 21.5665C35.479 21.0761 36.091 20.2915 36.3735 19.3352C35.6202 19.8011 34.7964 20.1199 33.9255 20.316C33.2193 19.5314 32.2072 19.041 31.1009 19.041C28.9589 19.041 27.2405 20.8554 27.2405 23.0622C27.2405 23.3809 27.2641 23.6751 27.3347 23.9694C24.1335 23.8223 21.3089 22.204 19.4022 19.7766C18.037 22.3266 19.567 24.4352 20.5792 25.1463C19.9672 25.1463 19.3552 24.9501 18.8373 24.6559C18.8373 26.642 20.179 28.2848 21.9209 28.6526C21.5442 28.7751 20.6969 28.8487 20.179 28.7261C20.6733 30.3199 22.1092 31.4968 23.7804 31.5213C22.4622 32.6001 20.5321 33.4583 18.0605 33.1886C19.7789 34.341 21.8032 35.003 23.9922 35.003C31.1009 35.003 34.9612 28.8732 34.9612 23.5771C34.9612 23.4054 34.9612 23.2338 34.9376 23.0622C35.7379 22.4492 36.397 21.7381 36.8913 20.929Z"
		fill="#68BB59"
		/>
		<path
		d="M27.5 54C42.1355 54 54 42.1355 54 27.5C54 12.8645 42.1355 1 27.5 1C12.8645 1 1 12.8645 1 27.5C1 42.1355 12.8645 54 27.5 54Z"
		stroke="#68BB59"
		strokeWidth="2"
		/>
	</g>
	<defs>
		<clipPath id="clip0_3491_8358">
		<rect width="55" height="55" fill="white" />
		</clipPath>
	</defs>
</svg>